<svg width="3278.645020" height="2798.645020" viewBox="0 0 3278.65 2798.65" fill="none" xmlns="http://www.w3.org/2000/svg" xmlns:xlink="http://www.w3.org/1999/xlink">
	<desc>
			Created with Pixso.
	</desc>
	<defs/>
	<g opacity="0.400000">
		<path id="Vector" d="M409.32 1442.99C557.24 1131.97 874.35 916.96 1241.68 916.96C1750.43 916.96 2162.85 1329.39 2162.85 1838.14C2162.85 2346.89 1750.43 2759.32 1241.68 2759.32C874.35 2759.32 557.24 2544.32 409.32 2233.3C352.37 2113.55 320.5 1979.57 320.5 1838.14M1920.5 2318.14L1835.66 2318.14L1792.07 2318.14L960.5 2318.14L320.5 2318.14L320.5 1838.14L320.5 1442.99L320.5 1358.14L562.85 1358.14L960.5 1358.14L1241.68 1358.14L1792.07 1358.14L1920.5 1358.14L1920.5 1838.14L1920.5 2318.14M562.85 1358.14C562.85 1211.03 586.25 1069.39 629.53 936.72C806.83 393.22 1317.81 0.49 1920.5 0.49C2670.31 0.49 3278.15 608.33 3278.15 1358.14C3278.15 2107.95 2670.31 2715.79 1920.5 2715.79C1767.38 2715.79 1620.18 2690.44 1482.88 2643.71M1482.88 2643.71C1283.99 2576.03 1105.84 2463.49 960.5 2318.14M960.5 2318.14C733.48 2091.12 586.49 1784.1 565.46 1442.99M565.46 1442.99C563.73 1414.93 562.85 1386.64 562.85 1358.14M960.5 1358.14C960.5 1186.55 1005.52 1025.46 1084.4 886.06C1249.23 594.75 1561.9 398.14 1920.5 398.14C2450.69 398.14 2880.5 827.95 2880.5 1358.14C2880.5 1888.34 2450.69 2318.14 1920.5 2318.14C1891.91 2318.14 1863.61 2316.89 1835.66 2314.45M1835.66 2314.45C1822.56 2313.3 1809.54 2311.88 1796.6 2310.22C1581.05 2282.45 1387.89 2183.18 1241.68 2036.97M1241.68 2036.97C1086.68 1881.98 984.44 1674.24 964.19 1442.99C961.75 1415.03 960.5 1386.73 960.5 1358.14M1920.5 1358.14L1835.66 1442.99L1241.68 2036.97L960.5 2318.14M1920.5 1838.14C1920.5 1979.01 1890.16 2112.79 1835.66 2233.3M1835.66 2233.3C1823.77 2259.6 1810.73 2285.26 1796.6 2310.22M1796.6 2310.22C1795.1 2312.87 1793.59 2315.51 1792.07 2318.14M1792.07 2318.14C1716.07 2449.52 1609.83 2561.22 1482.88 2643.71C1332.54 2741.4 1153.15 2798.15 960.5 2798.15C430.3 2798.15 0.5 2368.34 0.5 1838.14C0.5 1424.27 262.41 1071.56 629.53 936.72M629.53 936.72C732.7 898.83 844.18 878.14 960.5 878.14C1002.48 878.14 1043.84 880.84 1084.4 886.06M1084.4 886.06C1387.13 925.07 1645.69 1105.1 1792.07 1358.14M1792.07 1358.14C1807.95 1385.6 1822.51 1413.9 1835.66 1442.99M1835.66 1442.99C1890.16 1563.5 1920.5 1697.28 1920.5 1838.14M1835.66 1442.99L1835.66 2036.97L1835.66 2233.3L1835.66 2314.45L1835.66 2318.14M1241.68 2036.97L1835.66 2036.97M1835.66 1442.99L1241.68 1442.99L964.19 1442.99M964.19 1442.99L960.5 1442.99L565.46 1442.99L409.32 1442.99L320.5 1442.99M1241.68 1442.99L1241.68 1358.14M960.5 1442.99L960.5 1358.14M960.5 2318.14L960.5 1442.99M1241.68 2036.97L1241.68 1442.99M320.5 1838.14C320.5 1696.72 352.37 1562.73 409.32 1442.99M1241.68 1838.14L409.32 1838.14M409.32 1442.99L409.32 1838.14L409.32 2233.3" stroke="#FFFFFF" stroke-opacity="1.000000" stroke-width="1.000000"/>
	</g>
</svg>
