<svg width="1112.000000" height="1130.122070" viewBox="0 0 1112 1130.12" fill="none" xmlns="http://www.w3.org/2000/svg" xmlns:xlink="http://www.w3.org/1999/xlink">
	<desc>
			Created with Pixso.
	</desc>
	<defs>
		<filter id="filter_38_382_dd" x="0.000000" y="0.000000" width="1112.000000" height="1112.000000" filterUnits="userSpaceOnUse" color-interpolation-filters="sRGB">
			<feFlood flood-opacity="0" result="BackgroundImageFix"/>
			<feBlend mode="normal" in="SourceGraphic" in2="BackgroundImageFix" result="shape"/>
			<feGaussianBlur stdDeviation="100" result="effect_layerBlur_1"/>
		</filter>
	</defs>
	<path id="Vector" d="M939.34 616.73L938.06 615.76C837.51 538.35 571.22 474.42 344.24 473.13L343.15 473.13L343.3 472.07C366.23 310.81 424.75 192.62 496 163.62C526.83 151.05 558.81 156.45 588.53 179.13C694.11 179.9 788.44 222.46 854.63 299.2C889.79 340.16 915.37 388.45 929.5 440.55C944.86 495.88 948.26 554.6 939.65 615.28L939.34 616.73ZM540.81 486.16C707.54 509.55 864.99 557.96 937.93 613.29C946.32 553.46 942.76 495.46 927.63 440.92C913.54 389.09 888.08 341.04 853.11 300.28C787.31 224.02 693.24 181.62 588.18 181.09L587.88 181.04L587.63 180.83C557.91 158.02 527.39 152.81 496.7 165.29C426.24 194.04 368.28 311.2 345.31 471.26C410.73 471.94 476.04 476.91 540.81 486.16Z" fill="#FFFFFF" fill-opacity="1.000000" fill-rule="nonzero"/>
	<path id="Vector" d="M588.53 179.13C694.11 179.9 788.44 222.46 854.63 299.2C889.79 340.16 915.37 388.45 929.5 440.55C944.86 495.88 948.26 554.6 939.65 615.28L939.46 616.19L939.34 616.73L938.9 616.4L938.06 615.76C837.51 538.35 571.22 474.42 344.24 473.13L343.65 473.13L343.15 473.13L343.3 472.07C366.23 310.81 424.75 192.62 496 163.62C526.83 151.05 558.81 156.45 588.53 179.13ZM343.72 472.63L343.79 472.14Q360.98 351.28 401.98 268.47Q442.92 185.76 496.19 164.08Q514.03 156.81 531.65 157.33Q560.24 158.17 588.22 179.53L588.35 179.63L588.52 179.63Q651.06 180.09 707 199.52Q721.81 204.66 736.15 211.13Q767.03 225.07 794.07 244.39Q827.02 267.95 854.25 299.53Q880.98 330.67 899.7 366.04Q918.33 401.26 929.02 440.68Q931.75 450.51 933.97 460.45Q950.58 534.69 939.16 615.19L939.02 615.86L938.37 615.37L938.36 615.36Q901.26 586.81 834.96 560.53Q770.94 535.17 688.68 515.41Q606.44 495.67 518.7 484.58Q427.89 473.1 344.24 472.63L343.72 472.63ZM938.3 614.2L938.42 613.36Q948.99 538.04 934.62 467.83Q931.83 454.21 928.11 440.78Q917.42 401.44 898.81 366.28Q880.13 331.01 853.49 299.95Q826.67 268.88 794.26 245.59Q766.91 225.94 735.57 211.83Q720.36 204.98 704.63 199.63Q649.55 180.9 588.21 180.59L588.09 180.57L587.94 180.44L587.93 180.43Q559.97 158.97 531.42 158.17Q514.07 157.68 496.51 164.82Q443.49 186.46 402.75 268.81Q362.05 351.07 344.82 471.19L344.73 471.75L345.31 471.76Q394.76 472.27 443.96 476.04Q492.47 479.76 540.74 486.65Q667.79 504.48 774.39 538.22Q883.81 572.86 937.63 613.69L938.3 614.2ZM588.18 181.09L587.88 181.04L587.63 180.83C557.91 158.02 527.39 152.81 496.7 165.29C426.32 194.01 368.4 310.96 345.38 470.76C345.36 470.93 345.33 471.09 345.31 471.26C345.48 471.26 345.65 471.26 345.81 471.26C411.07 471.96 476.21 476.94 540.81 486.16C707.19 509.5 864.33 557.75 937.47 612.94C937.62 613.06 937.78 613.17 937.93 613.29C937.95 613.1 937.98 612.91 938.01 612.72C946.3 553.1 942.71 495.29 927.63 440.92C913.54 389.09 888.08 341.04 853.11 300.28C787.31 224.02 693.24 181.62 588.18 181.09Z" fill="#FFFFFF" fill-opacity="1.000000" fill-rule="evenodd"/>
	<path id="Vector" d="M786.98 241.22C736.38 202.26 602.13 170.08 487.77 169.38L487.78 167.5C602.5 168.16 737.22 200.56 788.12 239.73L786.98 241.22Z" fill="#FFFFFF" fill-opacity="1.000000" fill-rule="nonzero"/>
	<path id="Vector" d="M786.98 241.22C736.38 202.26 602.13 170.08 487.77 169.38L487.77 169.38L487.78 168L487.78 167.5C487.95 167.5 488.11 167.51 488.28 167.51C602.59 168.25 736.6 200.45 787.72 239.43C787.86 239.53 787.99 239.63 788.12 239.73L787.82 240.13L787.28 240.82L786.98 241.22ZM786.88 240.52Q748.81 211.44 661.4 190.46Q573.89 169.46 488.27 168.88L488.28 168.01Q574.01 168.55 661.77 189.66Q749.27 210.7 787.42 239.82L786.88 240.52Z" fill="#FFFFFF" fill-opacity="1.000000" fill-rule="evenodd"/>
	<path id="Vector" d="M912.75 397.3C826.03 330.64 596.12 275.34 400.21 274.21L400.22 272.33C596.46 273.46 826.92 328.87 913.9 395.82L912.75 397.3Z" fill="#FFFFFF" fill-opacity="1.000000" fill-rule="nonzero"/>
	<path id="Vector" d="M400.71 274.21C400.54 274.21 400.37 274.21 400.21 274.21L400.21 272.83L400.22 272.33C400.38 272.33 400.55 272.34 400.72 272.34C596.55 273.55 826.29 328.75 913.5 395.51C913.63 395.61 913.76 395.71 913.9 395.82L913.9 395.82L913.59 396.21L913.06 396.91L912.75 397.3L912.75 397.3C826.11 330.7 596.51 275.43 400.71 274.21ZM400.71 273.71Q472.66 274.16 550.81 284.04Q626.51 293.63 697.54 310.69Q768.55 327.76 823.82 349.64Q880.7 372.16 912.66 396.6L913.2 395.91Q881.26 371.46 824.35 348.9Q769.03 326.97 697.91 309.88Q626.79 292.78 550.97 283.18Q472.74 273.28 400.71 272.84L400.71 273.71Z" fill="#FFFFFF" fill-opacity="1.000000" fill-rule="evenodd"/>
	<path id="Vector" d="M791.24 543.94L789.38 543.67C810.69 393.79 783.79 268.98 717.4 209.75C681.99 178.2 637.42 168.14 588.43 181.05L587.86 179.22C637.48 166.28 682.66 176.34 718.56 208.34C785.57 267.99 812.64 393.43 791.24 543.94Z" fill="#FFFFFF" fill-opacity="1.000000" fill-rule="nonzero"/>
	<path id="Vector" d="M791.24 543.94L789.38 543.67L789.38 543.67C789.4 543.5 789.43 543.34 789.45 543.18C810.63 393.52 783.72 268.91 717.4 209.75C681.99 178.2 637.42 168.14 588.43 181.05L588.01 179.69L587.86 179.22C588.02 179.17 588.18 179.13 588.34 179.09C637.77 166.34 682.78 176.44 718.56 208.34C785.57 267.99 812.64 393.43 791.24 543.93L791.24 543.94ZM790.82 543.37L789.95 543.25Q805.83 431.05 786.77 342.61Q767.65 253.91 717.73 209.38Q698.36 192.11 675.69 183.5Q667.14 180.25 658.12 178.24Q658.09 178.23 658.06 178.22Q625.28 170.92 588.77 180.44L588.49 179.57Q625.31 170.08 658.25 177.41Q667.54 179.49 676.35 182.86Q698.92 191.51 718.23 208.72Q768.34 253.32 787.57 342.17Q806.75 430.82 790.82 543.37Z" fill="#FFFFFF" fill-opacity="1.000000" fill-rule="evenodd"/>
	<path id="Vector" d="M578 492.69L576.14 492.43C606.13 281.4 610.76 167.74 599.76 164.73C598.69 164.43 595.42 165.34 589.07 180.5L587.32 179.78C592.57 167.27 596.69 161.9 600.27 162.91C616.63 167.43 600.88 331.79 578 492.69Z" fill="#FFFFFF" fill-opacity="1.000000" fill-rule="nonzero"/>
	<path id="Vector" d="M578 492.69L576.14 492.43C576.16 492.27 576.19 492.1 576.21 491.94C606.14 281.22 610.75 167.74 599.76 164.73C598.69 164.43 595.42 165.34 589.07 180.5L587.78 179.97L587.32 179.78C587.39 179.62 587.45 179.47 587.52 179.31C592.67 167.14 596.74 161.91 600.27 162.91C616.63 167.43 600.88 331.79 578 492.69ZM577.58 492.13L576.71 492.01Q597.94 342.52 603.82 250.61Q609.19 166.8 599.9 164.25Q599.8 164.22 599.7 164.21Q595.7 163.52 588.8 179.85L587.98 179.51Q595.12 162.66 599.8 163.32Q599.97 163.34 600.14 163.39Q611.25 166.46 603.35 269.12Q596.37 359.92 577.58 492.13Z" fill="#FFFFFF" fill-opacity="1.000000" fill-rule="evenodd"/>
	<path id="Vector" d="M115.44 612.01L114.15 611.04C82.69 586.8 69.86 562.87 77.07 541.85C83.86 522.14 107.82 505.82 145.49 493.86C200.42 359.69 311.76 252 442.19 204.89C458.93 185.39 477.01 171.34 496.1 163.63C527.01 151.03 559.09 156.49 588.87 179.41L591.16 181.12L588.35 181.11C538.93 181.01 489.87 189.61 443.43 206.53C397.74 260.01 362.08 354.65 345.36 472.35L345.24 473.17L344.45 473.06C261.94 472.58 194 480.56 147.15 495.19C132.02 532.14 121.49 570.81 115.8 610.33L115.44 612.01ZM144.6 495.99C108.4 507.68 85.4 523.44 78.85 542.48C72.01 562.38 84.18 585.21 114.04 608.57C119.71 569.96 129.97 532.17 144.6 495.99ZM439.79 207.77C311.61 255.06 202.22 361.16 147.79 493.15C194.66 478.71 262.03 470.84 343.31 471.23C360 355.42 394.95 261.87 439.79 207.77ZM540.25 159.52C525.46 157.54 510.41 159.58 496.68 165.41C478.77 172.72 461.66 185.82 445.71 203.84C490.53 187.82 537.73 179.48 585.33 179.19C572.15 168.95 556.62 162.18 540.15 159.51L540.25 159.52Z" fill="#FFFFFF" fill-opacity="1.000000" fill-rule="nonzero"/>
	<path id="Vector" d="M145.49 493.86C107.82 505.82 83.86 522.14 77.07 541.85C69.86 562.87 82.69 586.8 114.15 611.04L115 611.67L115.44 612.01L115.55 611.47L115.8 610.33C121.49 570.81 132.02 532.14 147.15 495.19C194 480.56 261.94 472.58 344.45 473.06L345.24 473.17L345.36 472.35C362.08 354.65 397.74 260.01 443.43 206.53C489.87 189.61 538.93 181.01 588.35 181.11L590.32 181.12L591.16 181.12L590.49 180.62L588.87 179.41C559.09 156.49 527.01 151.03 496.1 163.63C477.01 171.34 458.93 185.39 442.19 204.89C311.76 252 200.42 359.69 145.49 493.86ZM589.64 180.62L588.56 179.81Q560.53 158.23 531.85 157.34Q514.19 156.8 496.28 164.1Q468.1 175.47 442.57 205.22L442.49 205.32L442.36 205.36Q420.88 213.12 400.33 222.85Q327.19 257.48 265.88 317.09Q219.56 362.11 186.28 415.3Q162.89 452.66 145.95 494.05L145.86 494.27L145.64 494.34Q87.62 512.77 77.54 542.01Q76.04 546.4 75.65 550.88Q73.24 578.88 114.45 610.64L114.46 610.64L115.11 611.14L115.31 610.25Q119.61 580.37 127.49 551.47Q135.32 522.75 146.69 495L146.77 494.78L147 494.71Q220.3 471.83 344.45 472.56L344.49 472.56L344.82 472.61L344.86 472.28Q357.33 384.55 383.06 315.18Q408.48 246.67 443.05 206.21L443.14 206.11L443.26 206.06Q478.42 193.26 514.7 186.89Q550.96 180.53 588.35 180.61L589.64 180.62ZM446.4 203.06C462.15 185.44 479.02 172.62 496.68 165.41C510.38 159.59 525.39 157.55 540.15 159.51L540.15 159.51C540.16 159.51 540.17 159.51 540.18 159.51C540.2 159.52 540.23 159.52 540.25 159.52L540.25 159.52C556.42 162.17 571.68 168.75 584.68 178.7C584.9 178.86 585.11 179.03 585.33 179.19C585.06 179.19 584.79 179.2 584.52 179.2C537.54 179.58 490.96 187.79 446.69 203.49C446.36 203.61 446.04 203.72 445.71 203.84C445.94 203.58 446.17 203.32 446.4 203.06ZM540.32 159.03Q552.9 161.08 564.21 166.02Q575.55 170.96 585.63 178.8L586.77 179.68L585.33 179.69Q549.44 179.91 514.59 186.06Q479.71 192.22 445.88 204.31L445.34 203.51Q469.83 175.83 496.49 164.95Q496.49 164.95 496.49 164.95Q507.04 160.47 518 158.99Q528.91 157.51 540.22 159.01L540.22 159.01L540.32 159.03L540.32 159.03ZM146.92 493.94L147.94 493.63Q220.91 471.15 343.31 471.73L343.75 471.73L343.81 471.3Q356.23 385.07 381.46 316.53Q406.37 248.87 440.18 208.09L441.36 206.66L439.62 207.3Q418.53 215.08 398.35 224.77Q326.23 259.39 265.78 318.34Q219.81 363.18 186.77 416.09Q163.97 452.6 147.33 492.96L146.92 493.94ZM148.41 492.96C148.2 493.02 147.99 493.09 147.79 493.15C147.87 492.95 147.95 492.75 148.04 492.55C202.42 361.16 311.27 255.51 438.86 208.11C439.17 208 439.48 207.88 439.79 207.77C439.58 208.02 439.37 208.28 439.16 208.54C394.62 262.75 359.92 355.96 343.31 471.23C262.39 470.84 195.25 478.64 148.41 492.96ZM144.45 495.52Q88.23 513.66 78.38 542.31Q76.94 546.49 76.55 550.77Q74.06 577.93 113.74 608.96L114.41 609.49L114.54 608.64Q118.81 579.56 126.46 551.4Q134.08 523.34 145.07 496.18L145.47 495.19L144.45 495.52ZM113.59 608.21C84.05 584.98 72.04 562.28 78.85 542.48C85.36 523.55 108.14 507.86 143.98 496.2C144.19 496.13 144.4 496.06 144.6 495.99C144.52 496.2 144.44 496.4 144.36 496.6C129.93 532.41 119.78 569.8 114.13 608C114.1 608.19 114.07 608.38 114.04 608.57C113.89 608.45 113.74 608.33 113.59 608.21Z" fill="#FFFFFF" fill-opacity="1.000000" fill-rule="evenodd"/>
	<path id="Vector" d="M371.44 238.85C355.45 226.47 348.86 214.23 352.58 203.43C360.36 180.85 412.15 167.07 487.78 167.5L487.77 169.38C412.97 169.01 361.9 182.1 354.37 204.04C350.94 214.02 357.25 225.54 372.49 237.32L371.44 238.85Z" fill="#FFFFFF" fill-opacity="1.000000" fill-rule="nonzero"/>
	<path id="Vector" d="M371.04 238.54C355.34 226.27 348.89 214.14 352.58 203.43C360.34 180.9 411.92 167.13 487.28 167.5L487.78 167.5L487.77 168.88L487.77 169.38C412.97 169.01 361.9 182.1 354.37 204.04C350.94 214.02 357.25 225.54 372.49 237.32L371.44 238.85C371.31 238.74 371.18 238.64 371.04 238.54ZM371.33 238.13L371.81 237.43Q351.71 221.74 352.99 208.06Q353.19 205.94 353.9 203.87Q359.62 187.2 395.72 177.86Q431.33 168.64 487.27 168.87L487.28 168Q430.97 167.72 394.86 177.32Q358.8 186.91 353.05 203.59Q352.29 205.8 352.09 208.05Q350.84 222.12 371.33 238.13Z" fill="#FFFFFF" fill-opacity="1.000000" fill-rule="evenodd"/>
	<path id="Vector" d="M201.51 393.25C174.27 372.28 163.2 351.58 169.4 333.36C182.59 294.97 270.99 271.65 400.17 272.33L400.16 274.2C271.88 273.47 184.15 296.28 171.11 333.95C165.16 351.33 176 371.31 202.56 391.72L201.51 393.25Z" fill="#FFFFFF" fill-opacity="1.000000" fill-rule="nonzero"/>
	<path id="Vector" d="M201.12 392.94C174.16 372.08 163.23 351.49 169.4 333.36C182.57 295.02 270.76 271.71 399.67 272.32L400.17 272.33L400.16 272.83L400.16 273.7L400.16 274.2L399.66 274.2C271.65 273.53 184.13 296.33 171.11 333.95C165.16 351.33 176 371.31 202.56 391.72L201.8 392.83L201.51 393.25C201.38 393.14 201.25 393.04 201.12 392.94ZM201.4 392.53L201.88 391.83Q166.95 364.84 169.06 341.16Q169.39 337.43 170.64 333.79Q180.5 305.3 242.29 289.19Q303.67 273.19 399.66 273.7L399.66 272.82Q303.15 272.36 241.42 288.68Q179.67 305 169.87 333.52L169.87 333.52Q168.58 337.33 168.25 341.21Q166.22 365.3 201.4 392.53Z" fill="#FFFFFF" fill-opacity="1.000000" fill-rule="evenodd"/>
	<path id="Vector" d="M162.17 490.3L160.3 490.04C177.95 365.91 240.11 262.58 330.79 206.58C407.74 159.14 499.26 149.36 588.48 179.25L587.9 181.05C499.21 151.33 408.28 160.91 331.79 208.16C241.58 263.82 179.74 366.72 162.17 490.3Z" fill="#FFFFFF" fill-opacity="1.000000" fill-rule="nonzero"/>
	<path id="Vector" d="M162.17 490.3L160.3 490.04C160.33 489.88 160.35 489.71 160.37 489.55C178.12 365.63 240.23 262.5 330.79 206.58C407.74 159.14 499.26 149.36 588.48 179.25L588.06 180.57L587.9 181.05C587.74 180.99 587.59 180.94 587.43 180.89C498.89 151.37 408.14 160.99 331.79 208.16C241.58 263.82 179.74 366.72 162.17 490.3ZM161.74 489.74L160.87 489.62Q174.14 396.92 218.59 323.02Q256.4 260.15 311.04 220.43Q320.78 213.35 331.06 207Q364.03 186.67 399.87 175.67Q426.68 167.43 455.09 164.41Q469.32 162.9 483.56 162.74Q535.6 162.15 587.85 179.57L587.58 180.41Q534.83 162.82 482.35 163.61Q468.78 163.81 455.22 165.24Q426.66 168.26 399.73 176.58Q364.2 187.55 331.52 207.74Q321.45 213.95 311.9 220.87Q257.16 260.54 219.31 323.5Q174.98 397.24 161.74 489.74Z" fill="#FFFFFF" fill-opacity="1.000000" fill-rule="evenodd"/>
	<path id="Vector" d="M79.82 539.93L77.95 539.67C93.95 427.15 153.74 327.69 246.39 259.66C344.08 187.83 465.58 159.35 588.43 179.3L588.16 181.16C465.54 161.04 344.66 189.66 247.4 261.1C155.27 328.84 95.75 427.83 79.82 539.93Z" fill="#FFFFFF" fill-opacity="1.000000" fill-rule="nonzero"/>
	<path id="Vector" d="M79.82 539.93L77.95 539.67C77.98 539.5 78 539.34 78.03 539.17C94.12 426.86 153.87 327.59 246.39 259.66C344.08 187.83 465.58 159.35 588.43 179.3L588.16 181.16C588 181.13 587.84 181.11 587.67 181.08C465.22 161.12 344.53 189.76 247.4 261.1C155.27 328.84 95.75 427.83 79.82 539.93ZM79.39 539.36L78.52 539.24Q85.33 491.69 102.16 448Q115.06 414.49 133.85 383.24Q149.63 357.01 168.83 333.58Q202.5 292.51 246.69 260.06Q284.17 232.5 325.61 213.62Q365.06 195.65 408.09 185.55Q435.22 179.18 462.72 176.18Q524.37 169.47 587.86 179.71L587.74 180.58Q524.92 170.34 463.88 176.82Q435.83 179.8 408.16 186.31Q366.67 196.06 328.48 213.17Q285.73 232.32 247.11 260.69Q202.98 293.14 169.38 334.2Q150.29 357.52 134.61 383.62Q115.91 414.73 103.06 448.08Q86.21 491.79 79.39 539.36Z" fill="#FFFFFF" fill-opacity="1.000000" fill-rule="evenodd"/>
	<path id="Vector" d="M512.55 739.14C344.83 715.6 186.58 666.78 114.15 611.04L113.72 610.7L113.8 610.15C147.78 371.22 360.6 177.89 588.19 179.21L588.51 179.26L588.76 179.45C689.61 257.08 744.02 514.49 710.06 753.28L709.94 754.1L709.15 753.99C643.36 753.38 577.69 748.42 512.55 739.14ZM115.74 609.87C216.34 686.96 481.86 750.71 708.32 752.15C741.93 514.4 687.95 258.49 587.87 181.09C361.47 179.96 149.82 372.19 115.74 609.87Z" fill="#FFFFFF" fill-opacity="1.000000" fill-rule="nonzero"/>
	<path id="Vector" d="M709.15 753.99L709.94 754.1L710.06 753.28C744.02 514.49 689.61 257.08 588.76 179.45L588.51 179.26L588.19 179.21C360.6 177.89 147.78 371.22 113.8 610.15L113.72 610.7L114.15 611.04C186.58 666.78 344.83 715.6 512.55 739.14C577.69 748.42 643.36 753.38 709.15 753.99ZM114.26 610.48L114.46 610.64L114.46 610.65Q167.9 651.78 277.77 686.69Q384.82 720.72 512.62 738.64Q562.14 745.69 611.9 749.41Q660.41 753.03 709.15 753.49L709.19 753.49L709.52 753.53L709.56 753.21Q722.06 665.3 719.12 573.81Q716.27 485.51 699.48 406.03Q682.7 326.63 654.59 268.5Q625.51 208.36 588.46 179.85L588.31 179.74L588.15 179.71Q573.26 179.63 558.44 180.62Q489.96 185.21 423.02 212.85Q410.79 217.9 398.87 223.61Q334.16 254.6 278.73 304.96Q243.43 337.02 214.86 374.24Q190.29 406.25 170.69 442.07Q138.72 500.5 123.41 563.01Q117.69 586.33 114.29 610.22L114.26 610.48ZM708.75 752.65L708.81 752.22Q721.2 664.64 718.25 573.49Q715.41 485.52 698.72 406.39Q682.03 327.28 654.09 269.32Q625.13 209.28 588.18 180.7L588.04 180.59L587.87 180.59Q573.03 180.52 558.27 181.52Q489.95 186.14 423.19 213.73Q410.93 218.79 398.99 224.52Q334.55 255.42 279.35 305.56Q244.19 337.49 215.71 374.55Q191.18 406.47 171.61 442.2Q139.69 500.48 124.36 562.83Q118.65 586.03 115.24 609.8L115.2 610.09L115.43 610.27Q152.55 638.71 218.74 664.89Q282.64 690.17 364.71 709.86Q446.76 729.56 534.27 740.65Q624.86 752.12 708.32 752.65L708.75 752.65ZM708.32 752.15C481.86 750.71 216.34 686.96 115.74 609.87C149.82 372.19 361.47 179.96 587.87 181.09C687.95 258.49 741.93 514.4 708.32 752.15Z" fill="#FFFFFF" fill-opacity="1.000000" fill-rule="evenodd"/>
	<path id="Vector" d="M572.64 303.54C487.96 291.66 408.11 267.01 371.54 238.86L372.69 237.35C423.29 276.3 557.5 308.53 671.89 309.19L671.88 311.06C638.67 310.75 605.52 308.24 572.64 303.54Z" fill="#FFFFFF" fill-opacity="1.000000" fill-rule="nonzero"/>
	<path id="Vector" d="M371.54 238.86L372.39 237.75L372.69 237.35C372.82 237.45 372.95 237.55 373.09 237.65C423.98 276.47 557.8 308.54 671.89 309.19L671.89 309.69L671.89 310.56L671.88 311.06C671.72 311.06 671.55 311.06 671.38 311.06C638.34 310.73 605.35 308.22 572.64 303.54C487.96 291.66 408.11 267.01 371.54 238.86ZM671.39 310.56L671.39 309.69Q585.78 309.14 498.25 288.12Q410.88 267.14 372.78 238.05L372.24 238.77Q399.19 259.33 454.2 276.82Q508.2 293.99 572.71 303.05Q597.73 306.62 622.88 308.51Q647.07 310.32 671.39 310.56Z" fill="#FFFFFF" fill-opacity="1.000000" fill-rule="evenodd"/>
	<path id="Vector" d="M545.5 503.98C400.67 483.66 264.02 441.49 201.45 393.36L202.59 391.85C289.3 458.61 519.22 513.84 715.14 514.95L715.13 516.85C658.36 516.3 601.7 512 545.5 503.98Z" fill="#FFFFFF" fill-opacity="1.000000" fill-rule="nonzero"/>
	<path id="Vector" d="M201.45 393.36L202.59 391.85C202.73 391.95 202.86 392.06 202.99 392.16C289.92 458.72 519.13 513.75 714.64 514.95L715.14 514.95L715.14 515.45L715.13 516.35L715.13 516.85C714.96 516.84 714.79 516.84 714.63 516.84C658.03 516.27 601.53 511.98 545.5 503.98C400.67 483.66 264.02 441.49 201.45 393.36ZM714.63 516.34L714.64 515.45Q642.67 515.01 564.53 505.13Q488.81 495.56 417.8 478.51Q346.77 461.45 291.52 439.56Q234.64 417.02 202.69 392.55L202.15 393.27Q248.32 428.6 342.78 458.62Q435.21 488 545.57 503.49Q587.53 509.47 629.7 512.69Q672.06 515.91 714.63 516.34Z" fill="#FFFFFF" fill-opacity="1.000000" fill-rule="evenodd"/>
	<path id="Vector" d="M264.13 681.64L262.27 681.38C296.11 442.55 442.25 217.28 587.86 179.22L588.33 181.03C443.41 218.94 297.85 443.48 264.13 681.64Z" fill="#FFFFFF" fill-opacity="1.000000" fill-rule="nonzero"/>
	<path id="Vector" d="M262.27 681.38L264.13 681.64C264.16 681.48 264.18 681.31 264.2 681.15C262.32 681.05 262.29 681.21 262.27 681.38ZM588.33 181.03C588.17 181.07 588.01 181.12 587.85 181.16C587.53 179.3 587.69 179.26 587.86 179.22L588.21 180.55L588.33 181.03Z" fill="#FFFFFF" fill-opacity="1.000000" fill-rule="evenodd"/>
	<path id="Vector" d="M477.25 732.87L475.39 732.61C509.29 494.07 559.51 246.07 587.32 179.78L589.07 180.5C561.3 246.67 511.13 494.45 477.25 732.87Z" fill="#FFFFFF" fill-opacity="1.000000" fill-rule="nonzero"/>
	<path id="Vector" d="M588.87 180.96C588.94 180.81 589 180.65 589.07 180.5L588.88 180.96L588.87 180.96ZM475.39 732.61L477.25 732.87C477.27 732.7 477.3 732.54 477.32 732.37C475.43 732.28 475.41 732.44 475.39 732.61ZM588.61 180.31L589.07 180.5C587.19 180.08 587.26 179.93 587.32 179.78L588.61 180.31Z" fill="#FFFFFF" fill-opacity="1.000000" fill-rule="evenodd"/>
	<path id="Vector" d="M708.05 754.04L708.2 752.97C742.08 514.78 688 258.1 587.62 180.88L585.33 179.17L588.11 179.2C693.72 179.82 788.29 222.48 854.47 299.05C889.63 340.01 915.21 388.3 929.34 440.4C944.65 495.52 948.1 554.12 939.57 614.58C970.72 638.71 983.49 662.53 976.22 683.44C960.98 727.84 858.6 754.88 709.07 754.03L708.05 754.04ZM590.95 181.17C690.25 260.69 743.61 515.45 710.21 752.21C858.32 752.94 959.46 726.41 974.49 682.94C981.43 662.75 968.83 639.56 938.05 615.86L937.61 615.52L937.69 614.98C946.17 554.56 942.88 496.06 927.61 441.02C913.52 389.19 888.07 341.14 853.1 300.38C787.9 224.68 694.87 182.43 590.95 181.17Z" fill="#FFFFFF" fill-opacity="1.000000" fill-rule="nonzero"/>
	<path id="Vector" d="M939.57 614.58C948.1 554.12 944.65 495.52 929.34 440.4C915.21 388.3 889.63 340.01 854.47 299.05C788.29 222.48 693.72 179.82 588.11 179.2L586.18 179.18L585.33 179.17L586.01 179.68L587.62 180.88C688 258.1 742.08 514.78 708.2 752.97L708.05 754.04L708.56 754.03L709.07 754.03C858.6 754.88 960.98 727.84 976.22 683.44C983.49 662.53 970.72 638.71 939.57 614.58ZM708.63 753.53L709.07 753.53Q821.15 754.16 892.88 735.22Q964.4 716.32 975.75 683.27Q977.27 678.9 977.67 674.42Q980.13 646.62 939.26 614.98L939.03 614.8L939.07 614.51Q950.34 534.71 933.98 461.04Q931.69 450.73 928.86 440.53Q918.14 400.99 899.43 365.69Q880.74 330.42 854.09 299.38Q827.23 268.31 794.79 245Q767.33 225.27 735.87 211.1Q720.48 204.17 704.56 198.77Q649.45 180.06 588.1 179.7L586.86 179.69L587.93 180.48Q624.99 209 654.03 269.13Q682.04 327.15 698.75 406.46Q715.46 485.75 718.27 573.94Q721.18 665.26 708.7 753.04L708.63 753.53ZM709.63 752.71L710.21 752.71Q821.32 753.26 892.38 734.63Q963.6 715.96 974.97 683.1Q976.42 678.88 976.8 674.57Q979.28 646.96 938.35 615.47L938.15 615.31L938.19 615.05Q950.17 529.62 930.98 451.89Q929.61 446.37 928.09 440.88Q917.39 401.49 898.75 366.3Q880.09 331.07 853.48 300.05Q827 269.31 795.01 246.18Q767.87 226.55 736.75 212.41Q721.94 205.67 706.63 200.37Q651.95 181.41 590.95 180.67L589.5 180.65L590.64 181.56Q627.14 210.79 655.72 270.86Q683.37 328.97 699.85 407.83Q716.35 486.73 719.13 574.3Q722.01 664.97 709.71 752.14L709.63 752.71ZM937.61 615.52L937.69 614.98C946.17 554.56 942.88 496.06 927.61 441.02C913.52 389.19 888.07 341.14 853.1 300.38C788.07 224.88 695.36 182.65 591.76 181.18C591.49 181.18 591.22 181.17 590.95 181.17C591.16 181.34 591.37 181.51 591.58 181.68C690.4 261.71 743.46 515.59 710.28 751.71C710.26 751.88 710.23 752.04 710.21 752.21C710.38 752.21 710.55 752.21 710.71 752.21C858.55 752.88 959.47 726.36 974.49 682.94C981.43 662.75 968.83 639.56 938.05 615.86L937.61 615.52Z" fill="#FFFFFF" fill-opacity="1.000000" fill-rule="evenodd"/>
	<path id="Vector" d="M671.79 311.05L671.8 309.17C746.6 309.54 797.66 296.45 805.19 274.51C808.62 264.56 802.33 253.04 787.07 241.23L788.22 239.75C804.21 252.12 810.8 264.34 807.08 275.16C799.13 297.72 747.41 311.48 671.79 311.05Z" fill="#FFFFFF" fill-opacity="1.000000" fill-rule="nonzero"/>
	<path id="Vector" d="M671.8 309.17L671.79 309.67L671.79 311.05L672.29 311.05C747.64 311.42 799.15 297.67 807.08 275.16C810.77 264.43 804.32 252.32 788.62 240.05C788.48 239.95 788.35 239.85 788.22 239.75L787.92 240.14L787.07 241.23C802.33 253.04 808.62 264.56 805.19 274.51C797.66 296.45 746.6 309.54 671.8 309.17ZM787.77 241.14Q807.87 256.85 806.57 270.52Q806.37 272.62 805.67 274.68Q799.94 291.35 763.85 300.69Q728.24 309.91 672.29 309.68L672.29 310.55Q728.57 310.83 764.68 301.24Q800.73 291.67 806.61 275Q807.36 272.79 807.57 270.54Q808.82 256.46 788.31 240.45L787.77 241.14Z" fill="#FFFFFF" fill-opacity="1.000000" fill-rule="evenodd"/>
	<path id="Vector" d="M715.22 516.73L715.23 514.83C843.56 515.57 931.3 492.69 944.23 455.07C950.18 437.7 939.33 417.75 912.78 397.31L913.92 395.82C941.17 416.79 952.24 437.48 946.04 455.71C932.78 494.08 844.26 517.44 715.22 516.73Z" fill="#FFFFFF" fill-opacity="1.000000" fill-rule="nonzero"/>
	<path id="Vector" d="M715.73 515.34L715.72 516.24Q812.13 516.72 873.92 500.39Q935.71 484.07 945.56 455.55Q946.86 451.74 947.19 447.85Q949.21 423.75 914.01 396.52L913.48 397.22Q948.42 424.25 946.27 447.92Q945.94 451.62 944.7 455.24Q934.92 483.7 873.13 499.82Q811.71 515.85 715.73 515.34ZM913.17 397.61L912.78 397.31L913.08 396.91L913.92 395.83L913.92 395.82L914.32 396.13C941.27 416.99 952.21 437.57 946.04 455.71C932.79 494.03 844.49 517.38 715.72 516.74C715.55 516.73 715.39 516.73 715.22 516.73L715.22 516.23L715.23 514.83C843.56 515.57 931.3 492.69 944.23 455.07C950.15 437.79 939.44 417.94 913.17 397.61Z" fill="#FFFFFF" fill-opacity="1.000000" fill-rule="evenodd"/>
	<path id="Vector" d="M893.06 735.25L891.2 734.99C925.06 496.93 789 248.44 587.9 181.05L588.48 179.25C790.41 246.91 927.04 496.34 893.06 735.25Z" fill="#FFFFFF" fill-opacity="1.000000" fill-rule="nonzero"/>
	<path id="Vector" d="M891.69 735.06L891.2 734.99C891.22 734.82 891.24 734.66 891.27 734.49C924.87 496.58 788.86 248.39 587.9 181.05L588.33 179.73L588.48 179.25C588.64 179.31 588.8 179.36 588.96 179.41C790.62 247.3 927.01 496.53 893.06 735.25L891.69 735.06ZM891.76 734.56Q894.3 716.63 895.59 698.61Q900.6 628.67 886.86 557.39Q876.79 505.08 857.52 456.41Q844.81 424.3 828.1 393.78Q786.05 316.98 725.23 262.18Q664.22 207.22 592.72 182.17Q590.63 181.44 588.53 180.73L588.8 179.89Q590.83 180.57 592.84 181.28Q664.53 206.35 725.7 261.45Q786.65 316.34 828.8 393.27Q845.65 424.05 858.45 456.43Q877.65 505.01 887.71 557.2Q901.54 628.97 896.42 699.36Q895.13 717.07 892.64 734.69L891.76 734.56Z" fill="#FFFFFF" fill-opacity="1.000000" fill-rule="evenodd"/>
	<path id="Vector" d="M975.4 685.7L973.54 685.44C1007.39 447.48 834.45 221.21 588.05 181.07L588.31 179.21C835.75 219.52 1009.39 446.72 975.4 685.7Z" fill="#FFFFFF" fill-opacity="1.000000" fill-rule="nonzero"/>
	<path id="Vector" d="M974.03 685.51L973.54 685.44C973.56 685.28 973.58 685.11 973.61 684.95C1007.15 447.16 834.28 221.19 588.05 181.07L588.31 179.21C588.48 179.23 588.64 179.26 588.81 179.29C835.98 219.82 1009.37 446.88 975.4 685.7L974.03 685.51ZM974.1 685.02Q979.76 644.92 977.84 605.19Q975.57 558.21 962.71 511.75Q954.59 482.41 942.67 454.7Q920.85 403.99 886.28 358.77Q861.42 326.24 831.77 298.9Q797.68 267.48 757.25 242.92Q720.9 220.84 681.84 205.82Q637.02 188.59 588.61 180.65L588.74 179.78Q637.26 187.74 682.21 205.03Q721.31 220.07 757.7 242.17Q798.17 266.76 832.31 298.21Q862.06 325.63 886.99 358.26Q921.61 403.55 943.47 454.33Q955.43 482.12 963.57 511.54Q976.44 558.07 978.72 605.11Q980.65 644.94 974.97 685.14L974.1 685.02Z" fill="#FFFFFF" fill-opacity="1.000000" fill-rule="evenodd"/>
	<path id="Vector" d="M464.85 1046.06L464.6 1045.88C363.77 968.24 309.34 710.83 343.3 472.07L343.41 471.25L344.23 471.36C571.55 472.64 838.46 536.81 939.2 614.35L939.63 614.69L939.55 615.24C905.57 854.15 692.76 1047.48 465.17 1046.16L464.85 1046.06ZM345.05 473.15C311.46 710.87 365.42 966.78 465.5 1044.18C691.9 1045.28 903.53 853.03 937.63 615.43C836.95 538.32 571.49 474.71 345.05 473.15Z" fill="#FFFFFF" fill-opacity="1.000000" fill-rule="nonzero"/>
	<path id="Vector" d="M344.23 471.36L343.91 471.32L343.41 471.25L343.3 472.07C309.34 710.83 363.77 968.24 464.6 1045.88L464.85 1046.06L465.17 1046.16C692.76 1047.48 905.57 854.15 939.55 615.24L939.63 614.69L939.2 614.35C838.46 536.81 571.55 472.64 344.23 471.36ZM939.09 614.91L938.89 614.75Q901.84 586.23 835.52 559.94Q771.44 534.54 689.06 514.75Q606.68 494.94 518.86 483.84Q427.93 472.33 344.23 471.86L344.2 471.86L343.84 471.81L343.79 472.14Q331.29 560.04 334.25 651.52Q337.1 739.86 353.89 819.29Q370.68 898.71 398.78 956.82Q427.86 1016.95 464.9 1045.48L464.91 1045.48L465.08 1045.61L465.24 1045.66Q480.11 1045.74 494.91 1044.75Q563.39 1040.16 630.34 1012.52Q642.7 1007.42 654.74 1001.64Q719.31 970.67 774.63 920.41Q810.06 888.23 838.72 850.85Q863.15 818.97 882.66 783.31Q914.77 724.62 930.08 661.84Q935.7 638.78 939.06 615.17L939.09 614.91ZM465.32 1044.68L465.49 1044.68Q480.44 1044.75 495.31 1043.74Q563.52 1039.07 630.18 1011.53Q642.37 1006.49 654.26 1000.79Q718.75 969.87 774.01 919.68Q809.07 887.84 837.49 850.9Q862.11 818.89 881.75 783.05Q913.61 724.91 928.95 662.7Q934.69 639.38 938.12 615.5L938.16 615.21L937.93 615.03Q900.8 586.59 834.59 560.42Q770.71 535.17 688.62 515.47Q606.58 495.79 519.07 484.7Q428.51 473.22 345.05 472.65L344.61 472.64L344.55 473.08Q332.17 560.69 335.12 651.79Q337.97 739.78 354.66 818.89Q371.35 898.01 399.28 955.95Q428.23 1015.99 465.19 1044.57L465.32 1044.68ZM345.05 473.15C311.46 710.87 365.42 966.78 465.5 1044.18C691.9 1045.28 903.53 853.03 937.63 615.43C836.95 538.32 571.49 474.71 345.05 473.15Z" fill="#FFFFFF" fill-opacity="1.000000" fill-rule="evenodd"/>
	<path id="Vector" d="M850.71 833.53C764 766.8 534.07 711.57 338.16 710.44L338.17 708.56C534.44 709.69 764.87 765.1 851.88 832.05L850.71 833.53Z" fill="#FFFFFF" fill-opacity="1.000000" fill-rule="nonzero"/>
	<path id="Vector" d="M338.66 710.44C338.49 710.44 338.33 710.44 338.16 710.44L338.17 709.06L338.17 708.56C338.34 708.57 338.5 708.57 338.67 708.57C534.53 709.79 764.24 764.99 851.48 831.75C851.61 831.85 851.74 831.95 851.88 832.05L851.57 832.44L850.71 833.53L850.7 833.53C764.07 766.85 534.46 711.66 338.66 710.44ZM338.66 709.94Q410.62 710.39 488.77 720.27Q564.48 729.84 635.5 746.9Q706.53 763.96 761.77 785.84Q818.67 808.38 850.62 832.84L851.17 832.14Q819.22 807.69 762.32 785.13Q706.99 763.21 635.88 746.11Q564.75 729.01 488.94 719.42Q410.7 709.51 338.67 709.07L338.66 709.94Z" fill="#FFFFFF" fill-opacity="1.000000" fill-rule="evenodd"/>
	<path id="Vector" d="M680.78 987.93C630.18 948.98 495.96 916.75 381.57 916.09L381.58 914.22C496.3 914.87 631.05 947.28 681.92 986.45L680.78 987.93Z" fill="#FFFFFF" fill-opacity="1.000000" fill-rule="nonzero"/>
	<path id="Vector" d="M680.78 987.93C630.18 948.98 495.96 916.75 381.57 916.09L381.57 916.09L381.58 914.72L381.58 914.22L381.58 914.22C381.75 914.22 381.92 914.22 382.08 914.22C496.4 914.96 630.43 947.17 681.53 986.14C681.66 986.25 681.79 986.35 681.92 986.45L681.62 986.84L681.08 987.54L680.78 987.93ZM680.69 987.23Q642.59 958.15 555.21 937.17Q467.68 916.15 382.07 915.6L382.08 914.72Q467.82 915.27 555.58 936.38Q643.09 957.42 681.22 986.54L680.69 987.23Z" fill="#FFFFFF" fill-opacity="1.000000" fill-rule="evenodd"/>
	<path id="Vector" d="M465.41 1046.04L464.93 1044.23C609.98 1006.34 755.51 781.79 789.38 543.67L791.24 543.94C757.28 782.75 611.11 1007.99 465.41 1046.04Z" fill="#FFFFFF" fill-opacity="1.000000" fill-rule="nonzero"/>
	<path id="Vector" d="M465.06 1044.71L465.41 1046.04L465.9 1045.92C611.34 1007.52 757.11 782.79 791.17 544.43C791.2 544.27 791.22 544.1 791.24 543.94L789.38 543.67C755.55 781.52 610.3 1005.84 465.42 1044.1L464.93 1044.23L465.06 1044.71ZM465.54 1044.57L465.77 1045.43Q519.08 1031.36 572.69 984.74Q624.71 939.49 669.81 870Q714.91 800.5 746.02 717.61Q778.16 632.01 790.68 544.36L789.81 544.24Q777.3 631.73 745.26 717.19Q714.24 799.93 669.27 869.31Q624.28 938.7 572.38 983.89Q518.84 1030.51 465.54 1044.57Z" fill="#FFFFFF" fill-opacity="1.000000" fill-rule="evenodd"/>
	<path id="Vector" d="M466.05 1045.5L464.32 1044.78C492.07 978.6 542.23 730.82 576.14 492.43L578 492.69C544.08 731.23 493.86 979.2 466.05 1045.5Z" fill="#FFFFFF" fill-opacity="1.000000" fill-rule="nonzero"/>
	<path id="Vector" d="M464.34 1044.75L464.32 1044.78L464.79 1044.97L465.59 1045.3L466.05 1045.5L466.24 1045.04C494.07 978.11 544.08 731.02 577.93 493.19C577.96 493.02 577.98 492.86 578 492.69L576.14 492.43L576.14 492.43C542.24 730.79 492.08 978.53 464.34 1044.75ZM464.98 1044.51L465.78 1044.84Q486.58 994.89 519.24 833.59Q552.02 671.76 577.44 493.12L576.57 493Q551.16 671.53 518.41 833.28Q485.77 994.54 464.98 1044.51Z" fill="#FFFFFF" fill-opacity="1.000000" fill-rule="evenodd"/>
	<path id="Vector" d="M413.86 1042.38C329.11 1030.49 254.05 990.25 198.83 926.11C163.67 885.15 138.09 836.86 123.96 784.76C108.65 729.66 105.22 671.07 113.73 610.6C82.58 586.48 69.82 562.66 77.08 541.75C92.35 497.35 194.73 470.29 344.26 471.16L345.32 471.16L345.17 472.23C311.3 710.39 365.41 967.03 465.76 1044.29L468.05 1046.01L465.27 1045.97C448.07 1045.93 430.9 1044.73 413.86 1042.38ZM343.16 473.06C195.05 472.33 93.91 498.86 78.87 542.33C71.94 562.52 84.53 585.71 115.32 609.4L115.75 609.74L115.68 610.29C107.2 670.71 110.49 729.21 125.78 784.23C139.85 836.06 165.28 884.1 200.25 924.86C265.48 1000.46 358.44 1042.71 462.45 1044.03C363.15 964.58 309.75 709.87 343.16 473.06Z" fill="#FFFFFF" fill-opacity="1.000000" fill-rule="nonzero"/>
	<path id="Vector" d="M113.73 610.6C105.22 671.07 108.65 729.66 123.96 784.76C138.09 836.86 163.67 885.15 198.83 926.11C254.05 990.25 329.11 1030.49 413.86 1042.38C430.9 1044.73 448.07 1045.93 465.27 1045.97L467.2 1046L468.05 1046.01L467.37 1045.5L465.76 1044.29C365.41 967.03 311.3 710.39 345.17 472.23L345.32 471.16L344.26 471.16C194.73 470.29 92.35 497.35 77.08 541.75C69.82 562.66 82.58 586.48 113.73 610.6ZM344.75 471.66L344.26 471.66Q232.19 471 160.45 489.96Q88.92 508.86 77.55 541.91Q76.03 546.28 75.64 550.76Q73.17 578.56 114.04 610.21L114.27 610.38L114.23 610.67Q102.8 691.89 119.88 766.59Q121.95 775.66 124.45 784.63Q135.18 824.21 153.92 859.55Q172.59 894.77 199.21 925.78L199.21 925.78Q223.15 953.59 251.74 975.26Q272.41 990.93 295.51 1003.4Q309.07 1010.71 323.17 1016.76Q366.04 1035.16 413.93 1041.88Q424.87 1043.39 435.86 1044.27Q450.53 1045.43 465.28 1045.47L466.52 1045.49L465.45 1044.68Q428.4 1016.16 399.37 956.02Q371.37 898.01 354.64 818.7Q337.93 739.45 335.11 651.24Q332.19 559.93 344.68 472.16L344.75 471.66ZM160.99 490.64Q89.77 509.31 78.4 542.16L78.4 542.16Q76.95 546.39 76.56 550.7Q74.08 578.3 115.02 609.8L115.22 609.96L115.18 610.22Q103.13 696.13 122.61 774.17Q123.89 779.28 125.3 784.36Q135.98 823.73 154.59 858.9Q173.25 894.15 199.87 925.19Q226.51 956.06 258.68 979.24Q285.69 998.7 316.6 1012.76Q331.12 1019.35 346.11 1024.57Q401.07 1043.75 462.45 1044.53L463.9 1044.55L462.77 1043.64Q426.26 1014.44 397.67 954.38Q370.02 896.3 353.53 817.45Q337.03 738.57 334.24 650.99Q331.35 560.33 343.65 473.13L343.73 472.56L343.16 472.56Q232.03 472.01 160.99 490.64ZM115.75 609.74L115.68 610.29C107.2 670.71 110.49 729.21 125.78 784.23C139.85 836.06 165.28 884.1 200.25 924.86C265.31 1000.27 357.95 1042.48 461.64 1044.02C461.91 1044.02 462.18 1044.03 462.45 1044.03C462.24 1043.86 462.03 1043.68 461.82 1043.52C362.99 963.56 309.9 709.72 343.09 473.56C343.11 473.39 343.14 473.22 343.16 473.06C342.99 473.06 342.82 473.06 342.65 473.06C194.82 472.39 93.89 498.91 78.87 542.33C71.94 562.52 84.53 585.71 115.32 609.4L115.75 609.74Z" fill="#FFFFFF" fill-opacity="1.000000" fill-rule="evenodd"/>
	<path id="Vector" d="M139.58 829.39C112.36 808.45 101.26 787.73 107.46 769.53C120.65 731.14 209.08 707.82 338.23 708.5L338.22 710.37C209.89 709.63 122.15 732.54 109.25 770.14C103.27 787.5 114.14 807.49 140.67 827.9L139.58 829.39Z" fill="#FFFFFF" fill-opacity="1.000000" fill-rule="nonzero"/>
	<path id="Vector" d="M139.18 829.09C112.25 808.25 101.29 787.64 107.46 769.53C120.63 731.19 208.85 707.88 337.73 708.5L338.23 708.5L338.23 709L338.22 709.87L338.22 710.37L337.72 710.37C209.66 709.69 122.13 732.59 109.25 770.14C103.27 787.5 114.14 807.49 140.67 827.9L139.87 828.99L139.58 829.39C139.45 829.29 139.31 829.19 139.18 829.09ZM139.48 828.68L139.98 828Q105.05 800.99 107.19 777.33Q107.53 773.61 108.78 769.97Q118.54 741.52 180.32 725.4Q241.76 709.36 337.72 709.87L337.73 709Q241.22 708.53 179.49 724.85Q117.73 741.17 107.94 769.69L107.94 769.69Q106.64 773.5 106.31 777.38Q104.29 801.47 139.48 828.68Z" fill="#FFFFFF" fill-opacity="1.000000" fill-rule="evenodd"/>
	<path id="Vector" d="M265.27 985.54C249.28 973.17 242.69 960.95 246.38 950.15C254.16 927.54 305.95 913.79 381.58 914.22L381.57 916.09C306.77 915.73 255.69 928.94 248.17 950.76C244.75 960.73 251.06 972.23 266.29 984.04L265.27 985.54Z" fill="#FFFFFF" fill-opacity="1.000000" fill-rule="nonzero"/>
	<path id="Vector" d="M264.88 985.23C249.17 972.97 242.72 960.86 246.38 950.15C254.15 927.59 305.73 913.85 381.08 914.22L381.58 914.22L381.57 915.59L381.57 916.09C306.77 915.73 255.69 928.94 248.17 950.76C244.75 960.73 251.06 972.23 266.29 984.04L265.55 985.13L265.27 985.54C265.14 985.44 265.01 985.34 264.88 985.23ZM265.16 984.82L265.62 984.15Q245.48 968.4 246.8 954.72Q247 952.63 247.7 950.59Q253.42 933.99 289.51 924.62Q325.21 915.36 381.07 915.59L381.08 914.72Q324.76 914.44 288.67 924.03Q252.61 933.61 246.86 950.31L246.86 950.31Q246.11 952.5 245.91 954.73Q244.65 968.8 265.16 984.82Z" fill="#FFFFFF" fill-opacity="1.000000" fill-rule="evenodd"/>
	<path id="Vector" d="M464.88 1046.02C263.01 978.39 126.33 728.93 160.3 490.04L162.17 490.3C128.31 728.34 264.37 976.83 465.49 1044.23L464.88 1046.02Z" fill="#FFFFFF" fill-opacity="1.000000" fill-rule="nonzero"/>
	<path id="Vector" d="M160.73 490.61Q158.23 508.33 156.94 526.13Q151.84 596.43 165.66 668.09Q175.7 720.17 194.85 768.66Q207.68 801.14 224.59 832.01Q266.74 908.95 327.68 963.84Q388.97 1019.03 460.77 1044.07Q462.66 1044.75 464.57 1045.39L464.86 1044.54Q462.82 1043.86 460.8 1043.15Q389.23 1018.12 328.15 963.09Q267.32 908.3 225.27 831.5Q208.5 800.87 195.76 768.65Q176.55 720.08 166.5 667.89Q152.77 596.59 157.78 526.64Q159.07 508.64 161.6 490.73L160.73 490.61ZM161.67 490.24L162.17 490.3C162.14 490.47 162.12 490.63 162.1 490.8C128.52 728.5 264.29 976.49 465.02 1044.06C465.17 1044.12 465.33 1044.18 465.49 1044.23L465.49 1044.23L465.33 1044.69L464.88 1046.02C263.01 978.39 126.33 728.93 160.3 490.04L161.67 490.24Z" fill="#FFFFFF" fill-opacity="1.000000" fill-rule="evenodd"/>
	<path id="Vector" d="M465.03 1046.06C217.62 1005.75 43.98 778.55 77.97 539.59L79.83 539.85C45.98 777.82 218.92 1004.06 465.34 1044.21L465.03 1046.06Z" fill="#FFFFFF" fill-opacity="1.000000" fill-rule="nonzero"/>
	<path id="Vector" d="M78.39 540.16Q72.72 580.32 74.64 620.12Q76.92 667.18 89.8 713.74Q97.93 743.13 109.87 770.88Q131.73 821.7 166.37 867.02Q191.32 899.66 221.08 927.09Q255.21 958.52 295.65 983.09Q332.06 1005.21 371.18 1020.26Q416.11 1037.54 464.62 1045.49L464.76 1044.62Q416.32 1036.68 371.46 1019.42Q332.44 1004.41 296.12 982.35Q255.64 957.76 221.51 926.29Q191.91 898.99 167.09 866.51Q132.51 821.28 110.68 770.56Q98.77 742.87 90.65 713.54Q77.8 667.1 75.53 620.15Q73.6 580.4 79.26 540.28L78.39 540.16ZM79.33 539.78L79.83 539.85C79.8 540.02 79.78 540.18 79.76 540.35C46.24 777.97 218.86 1003.79 464.85 1044.13C465.01 1044.16 465.18 1044.18 465.34 1044.21L465.26 1044.69L465.03 1046.06L465.03 1046.06C217.62 1005.75 43.98 778.55 77.97 539.59L79.33 539.78Z" fill="#FFFFFF" fill-opacity="1.000000" fill-rule="evenodd"/>
	<path id="Vector" d="M513.03 1067.46C495.38 1064.64 478.78 1057.26 464.85 1046.06C447.79 1045.97 430.76 1044.74 413.86 1042.38C329.11 1030.49 254.05 990.25 198.83 926.11C163.67 885.15 138.09 836.86 123.96 784.76C108.61 729.43 105.2 670.71 113.81 610.05L114.03 608.46L115.29 609.43C215.85 686.84 482.15 750.77 709.14 752.06L710.2 752.06L710.06 753.13C687.12 914.38 628.63 1032.56 557.38 1061.56C543.39 1067.44 528.07 1069.49 513.03 1067.46ZM465.5 1044.18L465.75 1044.39C495.46 1067.19 525.98 1072.42 556.67 1059.93C627.15 1031.23 685.12 914.07 708.05 754.04C481.93 752.54 216.99 689 115.44 612C107.04 671.83 110.6 729.81 125.77 784.35C139.83 836.18 165.27 884.22 200.23 924.99C266.03 1001.25 360.13 1043.65 465.19 1044.18L465.5 1044.18Z" fill="#FFFFFF" fill-opacity="1.000000" fill-rule="nonzero"/>
	<path id="Vector" d="M464.85 1046.06C478.78 1057.26 495.38 1064.64 513.03 1067.46C528.07 1069.49 543.39 1067.44 557.38 1061.56C628.63 1032.56 687.12 914.38 710.06 753.13L710.2 752.06L709.7 752.06L709.14 752.06C482.15 750.77 215.85 686.84 115.29 609.43L114.03 608.46L113.81 610.05C105.2 670.71 108.61 729.43 123.96 784.76C138.09 836.86 163.67 885.15 198.83 926.11C254.05 990.25 329.11 1030.49 413.86 1042.38C430.76 1044.74 447.79 1045.97 464.85 1046.06ZM114.41 609.38L114.31 610.12Q102.91 690.4 119.41 764.47Q121.66 774.61 124.45 784.63Q135.17 824.19 153.9 859.51Q172.58 894.75 199.21 925.78Q223.21 953.65 251.86 975.35Q272.48 990.97 295.51 1003.4Q309.08 1010.72 323.2 1016.78Q366.06 1035.17 413.93 1041.88Q426.28 1043.61 438.69 1044.53Q451.74 1045.5 464.86 1045.56L465.03 1045.56L465.17 1045.68Q475.72 1054.17 487.69 1059.49Q499.69 1064.81 513.09 1066.97Q513.1 1066.97 513.11 1066.97Q524.5 1068.5 535.5 1067.05Q546.55 1065.57 557.2 1061.09Q610.45 1039.42 651.39 956.71Q692.37 873.92 709.56 753.06L709.63 752.56L709.14 752.56Q625.5 752.09 534.67 740.61Q446.95 729.53 364.69 709.78Q282.41 690.02 218.4 664.66Q152.08 638.38 114.99 609.82L114.41 609.38ZM465.32 1044.68L465.43 1044.78L465.44 1044.79Q493.41 1066.25 521.96 1067.05Q539.3 1067.54 556.86 1060.4Q609.89 1038.8 650.64 956.45Q691.34 874.22 708.55 754.11L708.63 753.54L708.06 753.54Q624.79 752.98 534.4 741.54Q447.11 730.5 365.15 710.85Q283.21 691.21 219.26 666.01Q153.1 639.93 115.74 611.61L115.06 611.09L114.94 611.93Q104.35 687.45 118.83 757.8Q121.6 771.24 125.28 784.49Q135.97 823.86 154.58 859.03Q173.23 894.28 199.85 925.31Q226.6 956.31 258.92 979.56Q286.34 999.29 317.78 1013.44Q333.04 1020.31 348.81 1025.67Q403.87 1044.38 465.19 1044.68L465.2 1044.68L465.32 1044.68ZM465.5 1044.18L465.75 1044.39C495.46 1067.19 525.98 1072.42 556.67 1059.93C627.07 1031.26 685 914.31 707.98 754.53C708.01 754.37 708.03 754.2 708.05 754.04C707.89 754.03 707.72 754.03 707.55 754.03C481.88 752.45 217.7 689.14 115.89 612.35C115.74 612.23 115.59 612.12 115.44 612C115.41 612.19 115.38 612.38 115.36 612.57C107.06 672.19 110.65 729.98 125.77 784.35C139.83 836.18 165.27 884.22 200.23 924.99C266.03 1001.25 360.13 1043.65 465.19 1044.18L465.5 1044.18Z" fill="#FFFFFF" fill-opacity="1.000000" fill-rule="evenodd"/>
	<path id="Vector" d="M483.47 940.09C338.64 919.77 201.99 877.6 139.42 829.44L140.56 827.96C227.27 894.72 457.19 949.95 653.13 951.06L653.12 952.96C596.35 952.41 539.68 948.11 483.47 940.09Z" fill="#FFFFFF" fill-opacity="1.000000" fill-rule="nonzero"/>
	<path id="Vector" d="M139.82 829.75C139.68 829.65 139.55 829.55 139.42 829.44L139.72 829.05L140.56 827.96C227.2 894.66 456.8 949.86 652.63 951.06L653.13 951.06L653.13 951.56L653.13 952.46L653.12 952.96C652.96 952.96 652.79 952.95 652.62 952.95C596.02 952.38 539.51 948.08 483.47 940.09C338.95 919.81 202.57 877.78 139.82 829.75ZM140.12 829.35Q186.29 864.7 280.75 894.73Q373.17 924.11 483.54 939.6Q526.75 945.76 570.18 948.98Q611.3 952.04 652.63 952.45L652.63 951.56Q580.65 951.12 502.51 941.24Q426.79 931.67 355.77 914.62Q284.74 897.56 229.49 875.67Q172.61 853.13 140.66 828.66L140.12 829.35Z" fill="#FFFFFF" fill-opacity="1.000000" fill-rule="evenodd"/>
	<path id="Vector" d="M466.44 1050.26C381.76 1038.38 301.91 1013.73 265.35 985.55L266.49 984.07C317.09 1023.03 451.31 1055.26 565.67 1055.91L565.66 1057.78C532.46 1057.47 499.31 1054.96 466.44 1050.26Z" fill="#FFFFFF" fill-opacity="1.000000" fill-rule="nonzero"/>
	<path id="Vector" d="M265.74 985.86C265.61 985.75 265.48 985.65 265.35 985.55L265.65 985.16L266.49 984.07L266.49 984.07C317.09 1023.03 451.31 1055.26 565.67 1055.91L565.67 1056.41L565.67 1057.28L565.66 1057.78C565.5 1057.78 565.33 1057.78 565.16 1057.77C532.13 1057.44 499.15 1054.93 466.44 1050.26C382.06 1038.42 302.48 1013.91 265.74 985.86ZM266.05 985.46Q293 1006.05 348 1023.54Q401.99 1040.71 466.51 1049.77Q491.39 1053.32 516.4 1055.21Q540.72 1057.03 565.17 1057.27L565.17 1056.4Q479.58 1055.86 392.05 1034.84Q304.68 1013.86 266.58 984.77L266.05 985.46Z" fill="#FFFFFF" fill-opacity="1.000000" fill-rule="evenodd"/>
	<path id="Vector" d="M405.24 1050.21C378.92 1046.43 354.35 1034.84 334.71 1016.92C267.87 957.29 240.72 831.86 262.15 681.36L264.13 681.64C242.8 831.52 269.72 956.34 336.09 1015.54C371.5 1047.1 416.09 1057.02 465.06 1044.25L465.54 1046.06C445.91 1051.43 425.42 1052.84 405.24 1050.21Z" fill="#FFFFFF" fill-opacity="1.000000" fill-rule="nonzero"/>
	<path id="Vector" d="M367.68 1038.56Q350.08 1030.27 335.05 1016.55L335.04 1016.54Q285.03 971.93 265.82 883.11Q246.63 794.4 262.57 681.93L263.57 682.07Q247.67 794.25 266.73 882.7Q285.85 971.4 335.76 1015.91Q354.85 1032.93 377.19 1041.52Q386.03 1044.92 395.38 1047.01Q428.13 1054.29 464.7 1044.85L464.93 1045.71Q450.38 1049.64 435.63 1050.66Q420.58 1051.71 405.31 1049.71Q385.22 1046.84 367.68 1038.56ZM465.54 1046.06C445.91 1051.43 425.42 1052.84 405.24 1050.21C378.92 1046.43 354.35 1034.84 334.71 1016.92C267.87 957.29 240.72 831.86 262.15 681.36L264.13 681.64L264.13 681.64C264.11 681.81 264.09 681.97 264.06 682.14C242.86 831.79 269.8 956.4 336.09 1015.54C371.49 1047.09 416.08 1057.02 465.05 1044.25L465.06 1044.25L465.06 1044.25L465.54 1046.06Z" fill="#FFFFFF" fill-opacity="1.000000" fill-rule="evenodd"/>
	<path id="Vector" d="M453.51 1062.44L453.12 1062.4C436.73 1057.87 452.5 893.51 475.38 732.63L477.24 732.89C447.23 943.92 442.63 1057.56 453.6 1060.59C454.69 1060.74 457.94 1059.96 464.32 1044.8L466.04 1045.52C460.99 1057.53 457.01 1062.93 453.51 1062.44Z" fill="#FFFFFF" fill-opacity="1.000000" fill-rule="nonzero"/>
	<path id="Vector" d="M453.6 1060.59C442.64 1057.56 447.22 944.1 477.17 733.39C477.2 733.22 477.22 733.06 477.24 732.89L475.38 732.63C452.5 893.51 436.73 1057.87 453.12 1062.4L453.51 1062.44C456.97 1062.93 460.89 1057.67 465.85 1045.98C465.91 1045.82 465.98 1045.68 466.04 1045.52L465.58 1045.32L464.32 1044.8C457.94 1059.96 454.69 1060.74 453.6 1060.59ZM464.59 1045.44Q457.7 1061.67 453.53 1061.09L453.5 1061.07L453.46 1061.06Q444.19 1058.51 449.55 974.7Q455.44 882.72 476.68 733.32L475.81 733.19Q457.01 865.46 450.03 956.18Q442.13 1058.69 453.22 1061.91L453.58 1061.96Q458.24 1062.61 465.39 1045.79L464.59 1045.44Z" fill="#FFFFFF" fill-opacity="1.000000" fill-rule="evenodd"/>
	<path id="Vector" d="M513.03 1067.46C496.59 1065.15 480.28 1057.93 464.6 1045.88L462.31 1044.16L465.09 1044.17C514.52 1044.26 563.58 1035.66 610.03 1018.75C655.7 965.27 691.36 870.63 708.1 752.95L708.21 752.18L709.03 752.3C791.51 752.78 859.49 744.8 906.31 730.17C921.43 693.22 931.96 654.54 937.66 615.02L937.88 613.43L939.16 614.4C970.7 638.5 983.45 662.42 976.3 683.45C969.53 703.16 945.56 719.47 907.91 731.41C853.05 865.52 741.63 973.28 611.17 1020.38C594.43 1039.89 576.36 1053.93 557.39 1061.66C543.39 1067.52 528.07 1069.53 513.03 1067.46ZM467.92 1046.06C496.85 1067.43 526.69 1072.04 556.6 1059.93C574.52 1052.62 591.65 1039.52 607.55 1021.62C562.74 1037.56 515.56 1045.82 467.99 1046.06L467.92 1046.06ZM709.88 754.04C693.29 869.86 658.37 963.39 613.53 1017.5C741.71 970.2 851.07 864.12 905.5 732.13C858.7 746.59 791.33 754.45 709.95 754.05L709.88 754.04ZM939.32 616.75C933.64 655.35 923.37 693.13 908.73 729.3C944.94 717.61 967.97 701.85 974.49 682.81C981.35 662.94 969.19 640.09 939.34 616.75L939.32 616.75Z" fill="#FFFFFF" fill-opacity="1.000000" fill-rule="nonzero"/>
	<path id="Vector" d="M610.03 1018.75C563.58 1035.66 514.52 1044.26 465.09 1044.17L463.15 1044.17L462.31 1044.16L462.98 1044.67L464.6 1045.88C480.28 1057.93 496.59 1065.15 513.03 1067.46C528.07 1069.53 543.39 1067.52 557.39 1061.66C576.36 1053.93 594.43 1039.89 611.17 1020.38C741.63 973.28 853.05 865.52 907.91 731.41C945.56 719.47 969.53 703.16 976.3 683.45C983.45 662.42 970.7 638.5 939.16 614.4L937.88 613.43L937.66 615.02C931.96 654.54 921.43 693.22 906.31 730.17C859.49 744.8 791.51 752.78 709.03 752.3L708.21 752.18L708.1 752.95C691.36 870.63 655.7 965.27 610.03 1018.75ZM708.64 752.75L708.6 753.02Q696.12 840.73 670.38 910.1Q644.96 978.61 610.41 1019.08L610.33 1019.18L610.2 1019.22Q574.96 1032.05 538.59 1038.41Q502.4 1044.74 465.09 1044.67L463.82 1044.67L464.9 1045.48L464.9 1045.48Q488.34 1063.49 513.09 1066.97Q524.48 1068.53 535.48 1067.1Q546.54 1065.66 557.21 1061.19Q585.31 1049.75 610.79 1020.06L610.88 1019.96L611 1019.91Q632.31 1012.22 652.69 1002.59Q726.05 967.93 787.54 908.16Q834.25 862.76 867.68 809.1Q890.71 772.12 907.44 731.22L907.53 731L907.76 730.93Q965.78 712.54 975.82 683.29Q977.36 678.77 977.72 674.15Q979.92 646.17 938.86 614.8L938.26 614.34L938.15 615.09Q933.88 644.73 926.09 673.42Q918.22 702.38 906.77 730.36L906.68 730.58L906.46 730.65Q833.21 753.53 709.03 752.8L708.99 752.8L708.64 752.75ZM907.87 730.1L908.89 729.77Q965.15 711.62 974.96 682.98Q976.41 678.77 976.8 674.48Q979.29 647.35 939.65 616.36L939.54 616.28L938.89 616.19L938.82 616.68Q934.51 646.02 926.75 674.42Q919.16 702.21 908.27 729.11L907.87 730.1ZM909.36 729.1C909.15 729.16 908.94 729.23 908.73 729.3C908.82 729.09 908.9 728.89 908.98 728.69C923.42 692.89 933.57 655.5 939.23 617.31C939.26 617.13 939.28 616.96 939.31 616.79C939.31 616.78 939.31 616.76 939.32 616.75L939.34 616.75C939.48 616.87 939.63 616.98 939.77 617.09C969.3 640.31 981.32 663.03 974.49 682.81C968 701.74 945.2 717.43 909.36 729.1ZM611.96 1018.61L613.7 1017.97Q634.86 1010.16 655.09 1000.44Q727.14 965.82 787.52 906.93Q833.4 862.18 866.41 809.38Q889.28 772.78 905.96 732.32L906.37 731.34L905.35 731.66Q832.5 754.15 709.99 753.55L709.45 753.47L709.38 753.97Q697.04 840.19 671.83 908.74Q646.96 976.38 613.14 1017.18L611.96 1018.61ZM709.95 754.05L709.88 754.04C693.37 869.32 658.7 962.51 614.16 1016.73C613.95 1016.99 613.74 1017.24 613.53 1017.5C613.84 1017.38 614.15 1017.27 614.46 1017.15C742.05 969.76 850.87 864.12 905.25 732.73C905.34 732.53 905.42 732.33 905.5 732.13C905.29 732.2 905.09 732.26 904.88 732.32C858.11 746.65 790.97 754.45 709.95 754.05ZM521.4 1067.02Q538.96 1067.61 556.79 1060.39L556.79 1060.39Q583.43 1049.52 607.93 1021.96L607.39 1021.15Q573.45 1033.23 538.47 1039.32Q503.76 1045.39 468.02 1045.56L467.99 1045.56L467.62 1046.47Q494.2 1066.11 521.4 1067.02ZM468.61 1046.56C468.38 1046.4 468.15 1046.23 467.92 1046.06L467.99 1046.06C468.25 1046.06 468.51 1046.06 468.77 1046.06C515.72 1045.74 562.3 1037.6 606.57 1021.97C606.9 1021.85 607.23 1021.74 607.55 1021.62C607.32 1021.88 607.09 1022.14 606.86 1022.4C591.15 1039.9 574.26 1052.72 556.6 1059.93C526.93 1071.93 497.32 1067.52 468.61 1046.56Z" fill="#FFFFFF" fill-opacity="1.000000" fill-rule="evenodd"/>
	<path id="Vector" d="M653.17 952.96L653.18 951.07C781.49 951.8 869.23 928.91 882.15 891.3C888.11 873.93 877.26 853.97 850.71 833.53L851.88 832.05C879.09 853.02 890.19 873.72 883.99 891.94C870.73 930.31 782.31 953.69 653.17 952.96Z" fill="#FFFFFF" fill-opacity="1.000000" fill-rule="nonzero"/>
	<path id="Vector" d="M653.68 951.57L653.67 952.47Q750.13 952.97 811.91 936.63Q873.66 920.31 883.52 891.78Q884.8 887.99 885.13 884.12Q887.18 860.02 851.96 832.75L851.41 833.45Q886.35 860.48 884.2 884.15Q883.87 887.85 882.63 891.46Q872.85 919.92 811.06 936.05Q749.65 952.08 653.68 951.57ZM851.1 833.84C850.97 833.74 850.84 833.64 850.71 833.53L851.02 833.14L851.88 832.05C879.09 853.02 890.19 873.72 883.99 891.94C870.75 930.27 782.54 953.63 653.67 952.97C653.5 952.97 653.34 952.97 653.17 952.96L653.17 952.46L653.18 951.07C781.49 951.8 869.23 928.91 882.15 891.3C888.08 874.02 877.37 854.17 851.1 833.84Z" fill="#FFFFFF" fill-opacity="1.000000" fill-rule="evenodd"/>
	<path id="Vector" d="M565.59 1057.77L565.6 1055.9C640.42 1056.27 691.46 1043.17 699 1021.24C702.42 1011.28 696.14 999.76 680.88 987.95L682.02 986.46C698.01 998.83 704.6 1011.06 700.88 1021.88C693.03 1044.44 641.22 1058.19 565.59 1057.77Z" fill="#FFFFFF" fill-opacity="1.000000" fill-rule="nonzero"/>
	<path id="Vector" d="M565.64 1055.9L565.6 1055.9L565.59 1056.4L565.59 1057.77L566.09 1057.77C641.44 1058.14 693.05 1044.4 700.88 1021.88C704.57 1011.15 698.12 999.04 682.42 986.77C682.29 986.67 682.16 986.57 682.03 986.46L682.02 986.46L681.72 986.86L680.88 987.94L680.88 987.95L680.88 987.95C696.14 999.76 702.42 1011.28 699 1021.24C691.46 1043.17 640.45 1056.26 565.64 1055.9ZM566.09 1056.4L566.09 1057.27Q622.4 1057.55 658.52 1047.97Q694.61 1038.4 700.41 1021.72Q701.17 1019.51 701.37 1017.26Q702.62 1003.18 682.11 987.16L681.58 987.86Q701.68 1003.57 700.38 1017.24Q700.18 1019.34 699.47 1021.4Q693.74 1038.06 657.66 1047.42Q622.05 1056.63 566.09 1056.4Z" fill="#FFFFFF" fill-opacity="1.000000" fill-rule="evenodd"/>
	<path id="Vector" d="M523.97 1060.03C503.89 1057.18 484.11 1052.49 464.88 1046.02L465.49 1044.23C554.17 1073.97 645.11 1064.37 721.61 1017.12C811.82 961.4 873.62 858.65 891.2 734.99L893.06 735.25C875.41 859.39 813.28 962.72 722.57 1018.69C663.32 1055.46 592.97 1070.1 523.97 1060.03Z" fill="#FFFFFF" fill-opacity="1.000000" fill-rule="nonzero"/>
	<path id="Vector" d="M465.36 1046.18C465.2 1046.12 465.04 1046.06 464.88 1046.02L465.04 1045.55L465.49 1044.23C554.17 1073.97 645.11 1064.37 721.61 1017.12C811.82 961.4 873.62 858.65 891.2 734.99L893.06 735.25C893.04 735.42 893.01 735.58 892.99 735.75C875.25 859.66 813.16 962.79 722.57 1018.69C663.32 1055.46 592.97 1070.1 523.97 1060.03C504.05 1057.21 484.43 1052.56 465.36 1046.18ZM465.52 1045.69Q479.79 1050.49 494.38 1053.93Q509.05 1057.41 524.04 1059.54Q549.82 1063.3 575.46 1062.54Q601.21 1061.77 626.83 1056.43Q652.36 1051.13 676.21 1041.6Q700.11 1032.05 722.31 1018.27Q732.61 1011.91 742.37 1004.82Q796.99 965.12 834.79 902.27Q879.23 828.38 892.49 735.68L891.62 735.55Q878.37 828.1 834.07 901.79Q796.47 964.34 742.14 1003.93Q732.28 1011.11 721.87 1017.54Q689.12 1037.77 653.53 1048.74Q626.66 1057.03 598.17 1060.04Q584.5 1061.49 570.8 1061.68Q518.43 1062.43 465.8 1044.86L465.52 1045.69Z" fill="#FFFFFF" fill-opacity="1.000000" fill-rule="evenodd"/>
	<path id="Vector" d="M475.62 1047.65C472.09 1047.16 468.57 1046.66 465.02 1046.16L465.28 1044.3C587.67 1064.24 708.63 1035.81 805.92 964.27C898.03 896.52 957.55 797.53 973.47 685.53L975.33 685.79C959.34 798.31 899.56 897.74 807.03 965.79C712.22 1035.47 594.87 1064.38 475.62 1047.65Z" fill="#FFFFFF" fill-opacity="1.000000" fill-rule="nonzero"/>
	<path id="Vector" d="M465.09 1045.67L465.28 1044.3C465.44 1044.32 465.61 1044.35 465.77 1044.38C588 1064.16 708.76 1035.71 805.92 964.27C898.03 896.52 957.55 797.53 973.47 685.53L975.33 685.79C975.31 685.96 975.29 686.12 975.26 686.29C959.17 798.6 899.42 897.84 807.03 965.79C712.22 1035.47 594.87 1064.38 475.62 1047.65L465.02 1046.16L465.09 1045.67ZM465.58 1045.74L475.69 1047.16Q537.04 1055.77 596.47 1048.55Q623.62 1045.25 650.37 1038.64Q691.92 1028.39 730.07 1010.76Q770.29 992.17 806.73 965.39Q851.01 932.83 884.71 891.61Q903.78 868.3 919.45 842.21Q938.32 810.83 951.25 777.17Q967.98 733.6 974.77 686.22L973.9 686.1Q967.15 733.22 950.53 776.57Q937.6 810.3 918.7 841.75Q903.02 867.82 883.96 891.13Q850.36 932.21 806.22 964.67Q768.5 992.4 726.79 1011.33Q687.71 1029.06 645.13 1039.06Q617.92 1045.47 590.35 1048.46Q528.94 1055.11 465.7 1044.88L465.58 1045.74Z" fill="#FFFFFF" fill-opacity="1.000000" fill-rule="evenodd"/>
	<path id="Vector" d="M463.85 1064.03C453.67 1062.6 445.03 1060.98 440.52 1060.15C434.05 1058.93 419.26 1055.69 409.36 1052.99C399.46 1050.29 399.61 1050.31 385.78 1046.01C383.18 1045.22 380.14 1044.16 377.17 1043.11L373.28 1041.75C355.56 1035.4 338.25 1027.97 321.43 1019.51C311.66 1014.42 300.24 1008.08 292.27 1003.39C285.56 999.4 276.85 993.83 270.64 989.51C261.04 982.82 249.04 973.82 240.84 967.3C232.64 960.78 223.47 952.83 217.42 947.02C200.09 930.94 184.02 913.56 169.34 895.02C162.37 886.2 154.59 875.58 149.49 867.95C143.39 858.87 134.93 845.38 128.96 834.69C117.04 813.39 106.84 791.18 98.45 768.27C90.85 746.02 84.53 723.36 79.51 700.4C76.83 687.58 74.86 674.62 73.58 661.59C72.77 654.21 72.28 645.25 71.79 636.62C71.58 632.72 71.38 628.97 71.15 625.52C70.51 612.19 70.73 598.84 71.82 585.55L71.97 583.55C72.82 568.99 74.44 554.48 76.83 540.09C77.41 537.21 78.01 534.05 78.62 530.8C80.3 521.87 82.23 511.73 84.21 503.73C87.27 490.67 91.04 477.79 95.5 465.15C96.45 462.75 97.45 459.95 98.5 457.16C101.64 448.64 105.22 439.01 108.5 431.55C113.55 420.05 120.57 405.61 126 395.61C131.43 385.61 138.53 373.64 144.04 365.23C148.13 358.96 158.64 343.24 167.71 332.06C181.65 314.82 201.36 293.99 213.99 281.38C220.75 274.73 230.09 266.97 238.33 260.23C241.17 258.09 243.67 255.91 246.08 253.72C254.67 246.75 263.63 240.25 272.92 234.26C285.13 226.33 301.75 216.68 313.18 210.13C323.84 204.2 334.84 198.89 346.12 194.25C360.53 188.29 380.34 181.02 395.38 176.16C404.27 173.28 417.72 169.8 431.38 166.86C441.96 164.54 455.76 162.15 465.69 160.88C481.91 158.67 498.23 157.32 514.59 156.86C523.28 156.51 540.48 156.62 553.11 157.4C562.07 157.97 569.08 158.53 573.97 159.09C587.57 160.64 588.92 160.81 603.32 163.21C605.23 163.47 622.53 166.33 644.13 172.1C656.83 175.47 667.31 178.92 667.74 179.08C671.68 180.4 677.25 182.26 681.42 183.76C684.48 184.87 688.22 186.31 691.67 187.73L695.85 189.33C700.35 191.05 706.54 193.69 714.23 197.15C718.46 199.09 724.3 201.88 732.02 205.7C742.04 210.63 753.51 216.97 761.23 221.85C766.95 225.47 773.26 229.62 779.47 233.86C787.95 239.25 796.19 245.02 804.19 251.18L804.69 251.58C817.15 261.2 829.11 271.46 840.51 282.31C848.37 290.2 860.22 302.11 868.48 311.32C871.56 314.77 882.21 326.8 889.48 337.06L890.85 338.98C897.57 348.35 905.93 360.01 911.92 369.28C917.1 377.35 924.01 389.23 929.15 398.84C934.28 408.45 941 422.64 945.95 433.79C951.15 445.81 955.85 457.97 958.46 466.39C961.64 476.58 966.47 491.97 969.38 503.52C971.58 512.26 974.26 525.28 976.55 538.34C980.2 559.74 982.24 581.38 982.66 603.08C982.87 627.71 981.37 652.33 978.17 676.75C976.5 688.67 973.44 704.67 970.71 716.57C968.82 724.79 965.85 734.98 963.22 743.98C962.43 746.73 961.65 749.38 960.95 751.82C957.01 764.48 952.41 776.92 947.19 789.11C943.34 798.5 937.36 811.18 932.04 821.45C926.72 831.72 919.19 844.97 912.39 855.76C908.54 861.91 903.49 869.02 898.62 875.94C896.47 878.98 894.39 881.9 892.54 884.58C884.56 895.42 875.99 905.81 866.88 915.72C862.12 921.11 856.04 927.24 850.17 933.18C847.66 935.71 845.27 938.14 843.11 940.39C833.04 950.22 822.44 959.49 811.36 968.15C802.62 975.2 792.13 982.97 784.67 987.95C773.78 995.21 758.23 1004.76 745.07 1012.31C736.04 1017.5 723.86 1023.28 717.41 1026.28C709.83 1029.77 699.72 1033.92 691.59 1037.21L689.12 1038.21C672.89 1044.68 656.23 1050 639.26 1054.13C624.77 1057.56 613.81 1059.9 605.76 1061.32C595.66 1063.1 581.87 1064.99 571.39 1066.03C560.51 1067.03 547.78 1067.96 538.96 1068.16L537.77 1068.17C533.37 1068.29 527.91 1068.39 523.72 1068.32C516.13 1068.23 506.41 1067.88 500.4 1067.59C499.9 1067.52 487.39 1067 469.59 1064.79L463.85 1064.03ZM588.97 163.17C584.75 162.57 581 162.05 573.61 161.29C568.75 160.73 561.76 160.18 552.85 159.62C540.3 158.84 523.15 158.72 514.51 159.08C498.23 159.56 481.98 160.9 465.84 163.08C455.95 164.23 442.21 166.73 431.65 169.02C418.07 171.98 404.68 175.37 395.87 178.28C380.85 183.14 361.12 190.37 346.74 196.31C335.54 200.88 324.61 206.11 314.03 211.98C302.6 218.53 286.03 228.15 273.86 236.07C264.63 242.02 255.73 248.47 247.22 255.4L239.44 261.9C231.23 268.6 221.96 276.21 215.25 282.92C202.64 295.51 182.98 316.37 169.08 333.44C160.08 344.59 149.6 360.26 145.53 366.47C140.06 374.77 133.03 386.62 127.58 396.65C122.12 406.67 115.17 420.99 110.15 432.44C106.9 439.86 103.32 449.48 100.18 457.96C99.16 460.75 98.14 463.47 97.19 465.94C92.76 478.53 89.01 491.34 85.95 504.33C84.01 512.21 82.09 522.29 80.41 531.2C79.8 534.48 79.2 537.64 78.62 540.52C76.24 554.83 74.62 569.26 73.77 583.75L73.62 585.75C72.55 598.96 72.34 612.23 72.98 625.47C73.21 628.89 73.41 632.67 73.62 636.58C74.09 645.2 74.58 654.11 75.4 661.44C76.66 674.4 78.63 687.27 81.28 700.02C85.83 719.8 92.79 747.59 100.16 767.64C108.5 790.49 118.67 812.62 130.57 833.83C136.38 844.39 144.93 857.85 151 866.9C156.07 874.47 163.82 885.06 170.74 893.85C185.39 912.3 201.4 929.62 218.65 945.65C224.68 951.41 233.82 959.35 241.96 965.81C250.09 972.27 262.19 981.31 271.77 987.97C277.95 992.28 286.59 997.83 293.28 1001.78C301.18 1006.44 312.6 1012.75 322.35 1017.84C339.08 1026.28 356.3 1033.68 373.93 1040.04L377.84 1041.4C380.79 1042.42 383.83 1043.48 386.38 1044.27C400.08 1048.55 400.08 1048.55 409.89 1051.24C419.69 1053.93 434.37 1057.21 440.85 1058.35C446.23 1059.32 457.33 1061.39 469.92 1062.98C487.64 1065.18 500.07 1065.77 500.57 1065.79C506.56 1066.05 516.26 1066.42 523.84 1066.52C527.99 1066.56 533.45 1066.44 537.82 1066.36L539.01 1066.35C547.78 1066.13 560.45 1065.3 571.32 1064.22C581.72 1063.15 595.48 1061.31 605.53 1059.52C613.53 1058.11 624.46 1055.78 638.92 1052.36C655.8 1048.24 672.37 1042.94 688.52 1036.53L690.96 1035.53C699.02 1032.23 709.17 1028.11 716.73 1024.64C721.88 1022.22 734.92 1016.1 744.22 1010.77C757.36 1003.24 772.85 993.69 783.72 986.48C791.15 981.52 801.58 973.79 810.26 966.78C821.26 958.16 831.77 948.93 841.74 939.14C843.9 936.91 846.32 934.46 848.82 931.95C854.72 926.02 860.65 919.86 865.45 914.53C874.43 904.67 882.89 894.33 890.78 883.57C892.63 880.89 894.71 877.95 896.86 874.91C901.73 867.99 906.75 860.95 910.56 854.85C917.39 843.95 925.07 830.55 930.17 820.68C935.28 810.81 941.41 797.64 945.23 788.46C950.43 776.34 955.01 763.97 958.94 751.38C959.64 748.95 960.42 746.27 961.2 743.55C963.83 734.57 966.78 724.38 968.66 716.21C971.39 704.36 974.36 688.42 976.1 676.53C979.28 652.16 980.75 627.59 980.52 603.01C980.15 581.42 978.16 559.88 974.57 538.59C972.26 525.6 969.61 512.57 967.41 503.91C964.51 492.41 959.7 477.05 956.52 466.93C953.91 458.61 949.25 446.49 944.05 434.51C939.25 423.41 932.53 409.42 927.36 399.71C922.19 389.99 915.34 378.29 910.19 370.28C904.27 361.04 895.92 349.41 889.23 340.07L887.86 338.15C880.61 328.04 870.03 316.1 866.97 312.66C858.74 303.5 846.91 291.59 839.07 283.72C827.7 272.93 815.79 262.71 803.39 253.12L802.93 252.77C796.03 247.8 787.3 241.59 778.35 235.52C722.96 200.23 657.91 181.5 588.49 181.03L588.29 181L588.3 179.13C642.66 179.09 696.34 191.29 745.35 214.81C740.65 212.23 735.72 209.66 731.2 207.41C723.48 203.59 717.67 200.8 713.45 198.89C705.78 195.44 699.64 192.83 695.17 191.11L690.99 189.51C687.56 188.19 683.79 186.73 680.76 185.54C676.62 184.03 671.11 182.16 667.16 180.87C666.69 180.81 656.3 177.27 643.65 173.9C622.15 168.18 604.92 165.35 603.01 165.06C596.34 164.2 592.57 163.67 588.97 163.17Z" fill="#FFFFFF" fill-opacity="1.000000" fill-rule="nonzero"/>
	<path id="Vector" d="M603.32 163.21C588.92 160.81 587.57 160.64 573.97 159.09C569.08 158.53 562.07 157.97 553.11 157.4C540.48 156.62 523.28 156.51 514.59 156.86C498.23 157.32 481.91 158.67 465.69 160.88C455.76 162.15 441.96 164.54 431.38 166.86C417.72 169.8 404.27 173.28 395.38 176.16C380.34 181.02 360.53 188.29 346.12 194.25C334.84 198.89 323.84 204.2 313.18 210.13C301.75 216.68 285.13 226.33 272.92 234.26C263.63 240.25 254.67 246.75 246.08 253.72C243.67 255.91 241.17 258.09 238.33 260.23C230.09 266.97 220.75 274.73 213.99 281.38C201.36 293.99 181.65 314.82 167.71 332.06C158.64 343.24 148.13 358.96 144.04 365.23C138.53 373.64 131.43 385.61 126 395.61C120.57 405.61 113.55 420.05 108.5 431.55C105.22 439.01 101.64 448.64 98.5 457.16C97.45 459.95 96.45 462.75 95.5 465.15C91.04 477.79 87.27 490.67 84.21 503.73C82.23 511.73 80.3 521.87 78.62 530.8C78.01 534.05 77.41 537.21 76.83 540.09C74.44 554.48 72.82 568.99 71.97 583.55L71.82 585.55C70.73 598.84 70.51 612.19 71.15 625.52C71.38 628.97 71.58 632.72 71.79 636.62C72.28 645.25 72.77 654.21 73.58 661.59C74.86 674.62 76.83 687.58 79.51 700.4C84.53 723.36 90.85 746.02 98.45 768.27C106.84 791.18 117.04 813.39 128.96 834.69C134.93 845.38 143.39 858.87 149.49 867.95C154.59 875.58 162.37 886.2 169.34 895.02C184.02 913.56 200.09 930.94 217.42 947.02C223.47 952.83 232.64 960.78 240.84 967.3C249.04 973.82 261.04 982.82 270.64 989.51C276.85 993.83 285.56 999.4 292.27 1003.39C300.24 1008.08 311.66 1014.42 321.43 1019.51C338.25 1027.97 355.56 1035.4 373.28 1041.75L377.17 1043.11C380.14 1044.16 383.18 1045.22 385.78 1046.01C399.61 1050.31 399.46 1050.29 409.36 1052.99C419.26 1055.69 434.05 1058.93 440.52 1060.15C445.03 1060.98 453.67 1062.6 463.85 1064.03L469.59 1064.79C487.39 1067 499.9 1067.52 500.4 1067.59C506.41 1067.88 516.13 1068.23 523.72 1068.32C527.91 1068.39 533.37 1068.29 537.77 1068.17L538.96 1068.16C547.78 1067.96 560.51 1067.03 571.39 1066.03C581.87 1064.99 595.66 1063.1 605.76 1061.32C613.81 1059.9 624.77 1057.56 639.26 1054.13C656.23 1050 672.89 1044.68 689.12 1038.21L691.59 1037.21C699.72 1033.92 709.83 1029.77 717.41 1026.28C723.86 1023.28 736.04 1017.5 745.07 1012.31C758.23 1004.76 773.78 995.21 784.67 987.95C792.13 982.97 802.62 975.2 811.36 968.15C822.44 959.49 833.04 950.22 843.11 940.39C845.27 938.14 847.66 935.71 850.17 933.18C856.04 927.24 862.12 921.11 866.88 915.72C875.99 905.81 884.56 895.42 892.54 884.58C894.39 881.9 896.47 878.98 898.62 875.94C903.49 869.02 908.54 861.91 912.39 855.76C919.19 844.97 926.72 831.72 932.04 821.45C937.36 811.18 943.34 798.5 947.19 789.11C952.41 776.92 957.01 764.48 960.95 751.82C961.65 749.38 962.43 746.73 963.22 743.98C965.85 734.98 968.82 724.79 970.71 716.57C973.44 704.67 976.5 688.67 978.17 676.75C981.37 652.33 982.87 627.71 982.66 603.08C982.24 581.38 980.2 559.74 976.55 538.34C974.26 525.28 971.58 512.26 969.38 503.52C966.47 491.97 961.64 476.58 958.46 466.39C955.85 457.97 951.15 445.81 945.95 433.79C941 422.64 934.28 408.45 929.15 398.84C924.01 389.23 917.1 377.35 911.92 369.28C905.93 360.01 897.57 348.35 890.85 338.98L889.48 337.06C882.21 326.8 871.56 314.77 868.48 311.32C860.22 302.11 848.37 290.2 840.51 282.31C829.11 271.46 817.15 261.2 804.69 251.58L804.19 251.18C796.19 245.02 787.95 239.25 779.47 233.86C773.26 229.62 766.95 225.47 761.23 221.85C753.51 216.97 742.04 210.63 732.02 205.7C724.3 201.88 718.46 199.09 714.23 197.15C706.54 193.69 700.35 191.05 695.85 189.33L691.67 187.73C688.22 186.31 684.48 184.87 681.42 183.76C677.25 182.26 671.68 180.4 667.74 179.08C667.31 178.92 656.83 175.47 644.13 172.1C622.53 166.33 605.23 163.47 603.32 163.21ZM840.17 282.67Q840.17 282.66 840.16 282.66Q832.22 275.11 823.94 267.96Q814.39 259.7 804.38 251.97L803.88 251.57Q791.91 242.36 779.21 234.28L779.2 234.28L779.19 234.27Q769.64 227.75 760.96 222.28Q748.24 214.23 731.8 206.15Q720.74 200.68 714.02 197.61Q702.27 192.32 695.67 189.8L691.49 188.2L691.48 188.19Q686.51 186.15 681.25 184.23Q676.41 182.5 667.58 179.56L667.57 179.55L667.57 179.55Q661.07 177.12 644 172.58Q619.03 165.92 603.25 163.7L603.24 163.7L603.24 163.7Q588.67 161.27 573.91 159.58Q566.96 158.79 553.08 157.9Q532.62 156.63 514.61 157.36Q502.69 157.7 490.81 158.66Q478.26 159.67 465.75 161.38Q448.97 163.52 431.48 167.35Q409.73 172.04 395.53 176.64Q370.43 184.74 346.31 194.71Q337.28 198.42 328.53 202.69Q320.87 206.42 313.42 210.57Q286.9 225.77 273.19 234.68Q266.42 239.05 259.89 243.76Q253.01 248.74 246.41 254.1Q242.15 257.98 238.64 260.62Q221.73 274.47 214.35 281.73Q186.88 309.15 168.1 332.37Q157.84 345.03 144.46 365.5Q135.44 379.27 126.44 395.85Q117.52 412.27 108.96 431.75Q105.52 439.57 98.96 457.34Q98.58 458.36 97.84 460.37Q96.57 463.79 95.97 465.32Q92.82 474.26 90.13 483.34Q87.12 493.51 84.7 503.85Q82.64 512.13 79.11 530.89L77.33 540.17L77.32 540.19Q75.67 550.1 74.51 560.08Q73.15 571.79 72.47 583.59L72.32 585.59Q71.49 595.72 71.33 605.87Q71.18 615.67 71.65 625.49L72.29 636.59L72.34 637.46Q73.3 654.41 74.08 661.54Q75.08 671.76 76.65 681.89Q78.08 691.13 80 700.3Q84.19 719.45 89.57 738.27Q93.86 753.29 98.92 768.09Q105.06 784.87 112.47 801.07Q120.24 818.08 129.39 834.44Q138.29 850.36 149.9 867.68Q158.34 880.28 169.73 894.71Q179.73 907.34 190.55 919.21Q203.56 933.48 217.77 946.66Q227.77 956.27 241.15 966.91Q255.81 978.56 270.92 989.1Q281.13 996.2 292.52 1002.96Q306.28 1011.05 321.66 1019.06Q336.42 1026.49 351.64 1032.82Q362.43 1037.32 373.45 1041.28L377.34 1042.63Q383 1044.64 385.93 1045.53Q386.47 1045.69 388.43 1046.31Q400.23 1049.98 409.49 1052.51Q424.83 1056.69 440.61 1059.66L440.61 1059.66L441.1 1059.75Q454.1 1062.16 463.92 1063.53L469.66 1064.29Q484.65 1066.16 499.33 1067.02Q500.22 1067.06 500.42 1067.09L500.43 1067.09Q512.88 1067.68 523.72 1067.82Q529.15 1067.9 537.76 1067.67L538.95 1067.66Q551.44 1067.37 571.34 1065.53Q588.75 1063.81 605.67 1060.84Q618.15 1058.62 639.14 1053.64Q651.78 1050.56 664.14 1046.62Q676.68 1042.63 688.93 1037.75L691.4 1036.75Q708.45 1029.86 717.2 1025.81Q734.65 1017.72 744.82 1011.87Q766.75 999.29 784.4 987.54Q796.81 979.25 811.05 967.75Q817.07 963.05 822.89 958.11Q833.13 949.44 842.74 940.05Q842.75 940.04 842.76 940.03Q845.19 937.5 849.81 932.83L849.94 932.7L850.07 932.57Q861.81 920.7 866.51 915.38Q872.78 908.56 878.7 901.45Q885.66 893.08 892.13 884.3Q892.13 884.29 892.14 884.28Q893.63 882.11 896.93 877.46Q897.75 876.3 898.21 875.65L899.2 874.24Q908.38 861.22 911.96 855.5Q920.85 841.4 928.69 826.74Q930.16 823.99 931.6 821.22Q940.67 803.69 946.73 788.91Q952.19 776.19 956.7 763.14Q958.68 757.44 960.47 751.68L962.74 743.84Q968.32 724.73 970.22 716.46Q975.03 695.53 977.68 676.68Q980.15 657.78 981.27 638.79Q982.31 620.98 982.16 603.09Q981.84 586.5 980.26 570.03Q978.74 554.17 976.06 538.42Q972.41 517.64 968.9 503.65Q966.11 492.59 958.39 467.84L957.99 466.54Q953.95 453.57 945.49 433.99Q936.37 413.42 928.71 399.08Q920.07 382.91 911.5 369.55Q905.68 360.54 891.03 340.08L890.45 339.27L889.07 337.35Q881.33 326.43 868.1 311.66Q859.68 302.26 840.17 282.67ZM573.66 160.79L573.66 160.79Q566.7 160 552.88 159.12Q532.16 157.84 514.49 158.58Q502.71 158.93 490.98 159.87Q478.35 160.89 465.77 162.59Q451.1 164.29 431.55 168.53Q408.74 173.5 395.71 177.81Q370.51 185.96 346.55 195.85Q338.19 199.26 330.06 203.15Q321.8 207.09 313.79 211.54Q287.46 226.63 273.59 235.65Q266.41 240.28 259.51 245.3Q253.08 249.98 246.9 255.01L239.12 261.52Q221.87 275.59 214.89 282.56Q187.93 309.49 168.7 333.13Q158.44 345.82 145.12 366.2Q136.31 379.55 127.14 396.41Q118.26 412.71 109.69 432.24Q106.35 439.87 99.71 457.78L96.72 465.77Q93.15 475.9 90.18 486.21Q87.6 495.14 85.47 504.21Q83.44 512.43 79.92 531.11L78.13 540.43L78.13 540.44Q76.34 551.2 75.12 562.03Q73.91 572.84 73.27 583.72L73.12 585.71Q72.33 595.56 72.16 605.42Q72 615.45 72.48 625.49L73.13 636.6Q74.04 653.79 74.91 661.49Q75.89 671.61 77.44 681.64Q78.87 690.92 80.79 700.12Q90.76 743.52 99.69 767.82Q105.78 784.52 113.15 800.64Q120.94 817.68 130.14 834.07Q138.13 848.61 150.59 867.18Q158.9 879.61 170.35 894.16Q180.81 907.34 192.15 919.7Q204.69 933.36 218.31 946.02Q228.59 955.84 241.65 966.2Q256.1 977.68 271.48 988.38Q281.77 995.56 293.02 1002.21Q306.16 1009.95 322.12 1018.28Q334.78 1024.67 347.78 1030.26Q360.6 1035.78 373.76 1040.51L377.68 1041.87L377.91 1041.96L378.14 1042.04Q383.81 1044 386.23 1044.75L386.23 1044.75Q399.96 1049.04 409.75 1051.72Q426.63 1056.36 440.76 1058.84L441.51 1058.98Q457.81 1061.96 469.86 1063.48Q488.61 1065.81 500.55 1066.29Q514.72 1066.9 523.84 1067.02Q527.97 1067.06 537.83 1066.86L537.83 1066.86L539.02 1066.85Q553.57 1066.49 571.37 1064.72Q589.81 1062.81 605.62 1060.02Q617.71 1057.88 639.03 1052.85Q650.77 1049.98 662.27 1046.38Q675.65 1042.18 688.7 1036.99L691.15 1035.99Q691.55 1035.82 693.04 1035.22Q709.97 1028.29 716.94 1025.09Q735.13 1016.56 744.47 1011.2Q765.75 999.01 783.99 986.89Q796.4 978.61 810.57 967.17Q817.63 961.64 824.4 955.79Q833.5 947.94 842.09 939.49L842.09 939.49L842.1 939.48Q844.96 936.53 849.18 932.3Q859.18 922.24 865.82 914.87Q871.37 908.77 876.65 902.44Q884.2 893.39 891.19 883.87L897.27 875.19Q897.67 874.62 898.59 873.33Q907.52 860.66 910.99 855.11Q922.1 837.37 930.62 820.91Q939.05 804.62 945.69 788.65Q949.01 780.93 951.98 773.07Q956.01 762.42 959.42 751.53L961.68 743.69Q967.14 725.04 969.15 716.32Q973.62 696.87 976.6 676.6Q978.82 659.59 979.93 642.51Q981.21 622.8 981.02 603Q980.74 586.8 979.25 570.7Q977.76 554.55 975.06 538.51Q971.22 516.89 967.89 503.78Q964.86 491.75 956.99 466.78Q952.79 453.36 944.51 434.31Q936.61 416.02 927.8 399.47Q919.35 383.6 910.61 370.01Q904.85 361.02 890.19 340.55L889.64 339.77L888.26 337.86Q880.84 327.49 867.35 312.32Q858.61 302.61 839.43 283.37L839.42 283.37L839.42 283.36Q829.23 273.7 818.51 264.67Q811.22 258.55 803.69 252.72L803.23 252.37Q789.27 242.32 778.63 235.11L778.63 235.11L778.62 235.1Q750.74 217.33 720.56 205.35Q659.39 181.06 588.79 180.53L588.8 179.63Q629.76 179.65 668.73 188.51Q707.95 197.41 745.14 215.27L745.59 214.38Q738.8 210.64 731.42 206.96Q719.89 201.26 713.66 198.44Q702.22 193.28 695.35 190.64L691.17 189.04L687.87 187.77L680.94 185.08Q675.21 182.97 667.31 180.4L667.27 180.39L667.23 180.38Q667.15 180.37 665 179.69Q653.09 175.9 643.78 173.42Q620.68 167.27 603.08 164.57L589.03 162.67Q581.06 161.55 573.66 160.79ZM588.3 179.13C639.66 179.09 690.41 189.98 737.19 211.02C739.93 212.25 742.65 213.52 745.35 214.81C742.7 213.36 739.98 211.91 737.3 210.52C735.23 209.44 733.17 208.39 731.2 207.41C723.48 203.59 717.67 200.8 713.45 198.89C705.78 195.44 699.64 192.83 695.17 191.11L690.99 189.51C687.56 188.19 683.79 186.73 680.76 185.54C676.62 184.03 671.11 182.16 667.16 180.87C666.69 180.81 656.3 177.27 643.65 173.9C622.15 168.18 604.92 165.35 603.01 165.06C596.34 164.2 592.57 163.67 588.97 163.17C584.75 162.57 581 162.05 573.61 161.29C568.75 160.73 561.76 160.18 552.85 159.62C540.3 158.84 523.15 158.72 514.51 159.08C498.23 159.56 481.98 160.9 465.84 163.08C455.95 164.23 442.21 166.73 431.65 169.02C418.07 171.98 404.68 175.37 395.87 178.28C380.85 183.14 361.12 190.37 346.74 196.31C335.54 200.88 324.61 206.11 314.03 211.98C302.6 218.53 286.03 228.15 273.86 236.07C264.63 242.02 255.73 248.47 247.22 255.4L239.44 261.9C231.23 268.6 221.96 276.21 215.25 282.92C202.64 295.51 182.98 316.37 169.08 333.44C160.08 344.59 149.6 360.26 145.53 366.47C140.06 374.77 133.03 386.62 127.58 396.65C122.12 406.67 115.17 420.99 110.15 432.44C106.9 439.86 103.32 449.48 100.18 457.96C99.16 460.75 98.14 463.47 97.19 465.94C92.76 478.53 89.01 491.34 85.95 504.33C84.01 512.21 82.09 522.29 80.41 531.2C79.8 534.48 79.2 537.64 78.62 540.52C76.24 554.83 74.62 569.26 73.77 583.75L73.62 585.75C72.55 598.96 72.34 612.23 72.98 625.47C73.21 628.89 73.41 632.67 73.62 636.58C74.09 645.2 74.58 654.11 75.4 661.44C76.66 674.4 78.63 687.27 81.28 700.02C85.83 719.8 92.79 747.59 100.16 767.64C108.5 790.49 118.67 812.62 130.57 833.83C136.38 844.39 144.93 857.85 151 866.9C156.07 874.47 163.82 885.06 170.74 893.85C185.39 912.3 201.4 929.62 218.65 945.65C224.68 951.41 233.82 959.35 241.96 965.81C250.09 972.27 262.19 981.31 271.77 987.97C277.95 992.28 286.59 997.83 293.28 1001.78C301.18 1006.44 312.6 1012.75 322.35 1017.84C339.08 1026.28 356.3 1033.68 373.93 1040.04L377.84 1041.4C380.79 1042.42 383.83 1043.48 386.38 1044.27C400.08 1048.55 400.08 1048.55 409.89 1051.24C419.69 1053.93 434.37 1057.21 440.85 1058.35L441.6 1058.48C447.22 1059.51 457.89 1061.46 469.92 1062.98C487.64 1065.18 500.07 1065.77 500.57 1065.79C506.56 1066.05 516.26 1066.42 523.84 1066.52C527.99 1066.56 533.45 1066.44 537.82 1066.36L539.01 1066.35C547.78 1066.13 560.45 1065.3 571.32 1064.22C581.72 1063.15 595.48 1061.31 605.53 1059.52C613.53 1058.11 624.46 1055.78 638.92 1052.36C655.8 1048.24 672.37 1042.94 688.52 1036.53L690.96 1035.53C699.02 1032.23 709.17 1028.11 716.73 1024.64C721.88 1022.22 734.92 1016.1 744.22 1010.77C757.36 1003.24 772.85 993.69 783.72 986.48C791.15 981.52 801.58 973.79 810.26 966.78C821.26 958.16 831.77 948.93 841.74 939.14C843.9 936.91 846.32 934.46 848.82 931.95C854.72 926.02 860.65 919.86 865.45 914.53C874.43 904.67 882.89 894.33 890.78 883.57C892.63 880.89 894.71 877.95 896.86 874.91C901.73 867.99 906.75 860.95 910.56 854.85C917.39 843.95 925.07 830.55 930.17 820.68C935.28 810.81 941.41 797.64 945.23 788.46C950.43 776.34 955.01 763.97 958.94 751.38C959.64 748.95 960.42 746.27 961.2 743.55C963.83 734.57 966.78 724.38 968.66 716.21C971.39 704.36 974.36 688.42 976.1 676.53C979.28 652.16 980.75 627.59 980.52 603.01C980.15 581.42 978.16 559.88 974.57 538.59C972.26 525.6 969.61 512.57 967.41 503.91C964.51 492.41 959.7 477.05 956.52 466.93C953.91 458.61 949.25 446.49 944.05 434.51C939.25 423.41 932.53 409.42 927.36 399.71C922.19 389.99 915.34 378.29 910.19 370.28C904.27 361.04 895.92 349.41 889.23 340.07L887.86 338.15C880.61 328.04 870.03 316.1 866.97 312.66C858.74 303.5 846.91 291.59 839.07 283.72C827.7 272.93 815.79 262.71 803.39 253.12L802.93 252.77C796.03 247.8 787.3 241.59 778.35 235.52C722.96 200.23 657.91 181.5 588.49 181.03L588.29 181L588.3 179.13Z" fill="#FFFFFF" fill-opacity="1.000000" fill-rule="evenodd"/>
	<g filter="url(#filter_38_382_dd)">
		<circle id="Ellipse 5" cx="556.000000" cy="556.000000" r="256.000000" fill="#3686C7" fill-opacity="1.000000"/>
	</g>
</svg>
